<?xml version="1.0" encoding="UTF-8"?>
<svg width="24px" height="7px" viewBox="0 0 24 7" version="1.1" xmlns="http://www.w3.org/2000/svg" xmlns:xlink="http://www.w3.org/1999/xlink">
    <!-- Generator: Sketch 58 (84663) - https://sketch.com -->
    <title>Combined Shape</title>
    <desc>Created with Sketch.</desc>
    <g id="Page-1" stroke="none" stroke-width="1" fill="none" fill-rule="evenodd">
        <g id="Artboard" fill="#FFFFFF" fill-rule="nonzero">
            <g id="bbc">
                <path d="M24,0 L24,7 L16.7372599,7 L16.7372599,0 L24,0 Z M15.6313131,0 L15.6313131,7 L8.36857306,7 L8.36857306,0 L15.6313131,0 Z M7.26262632,0 L7.26262632,7 L-4.4408921e-16,7 L-4.4408921e-16,0 L7.26262632,0 Z M20.6888742,0.917163409 C20.6590577,0.917163409 20.641987,0.917746178 20.6128532,0.91809584 C20.5578859,0.919028272 20.5045119,0.92159246 20.4518207,0.92508908 C20.4217764,0.927070499 20.3923012,0.92975124 20.3630536,0.932315428 C20.3198081,0.936278264 20.2770178,0.941056978 20.2350242,0.946535016 L20.1997449,0.951430284 L20.1608239,0.957257984 L20.1126849,0.965067101 C20.0915174,0.968563722 20.0709188,0.97229345 20.0504341,0.976139731 C20.0219832,0.981617769 19.9935322,0.987445464 19.9655364,0.993389725 C19.7932372,1.030687 19.6339117,1.080339 19.4866494,1.13908222 C19.410856,1.16938626 19.3375663,1.20202138 19.2684873,1.23698758 C19.2107886,1.26577641 19.1551385,1.2957308 19.1018782,1.32720037 C19.0500975,1.35785408 19.0002514,1.38874088 18.9525675,1.42160911 C18.9250269,1.44025775 18.8979416,1.45925605 18.8717667,1.47872057 C18.8492335,1.49538779 18.8268142,1.51205502 18.8050776,1.52930501 C18.7592146,1.5657864 18.7146035,1.60273402 18.673065,1.64061407 C18.6341441,1.67592994 18.5962474,1.71171202 18.5610819,1.74761064 C18.5306963,1.77873056 18.5003106,1.81020014 18.4715182,1.84318492 C18.4424982,1.87663591 18.4134782,1.91032002 18.3857101,1.94540278 C18.355552,1.98363249 18.3258492,2.02267807 18.2973982,2.06312231 C18.2764583,2.09307669 18.2559736,2.12349729 18.2361717,2.15450065 L18.1965679,2.21813913 C18.1207744,2.34494988 18.054313,2.48085185 18.0000285,2.62572846 C17.9319737,2.80638716 17.8828104,3.00056611 17.8558389,3.20733291 C17.8474174,3.27225349 17.8408168,3.33833961 17.8370612,3.40594092 C17.8342161,3.45780746 17.8321677,3.51037331 17.8321677,3.56363848 C17.8321677,3.60349995 17.8325091,3.6428952 17.8350128,3.68182424 C17.8376303,3.72261814 17.840703,3.76271271 17.8452551,3.80257418 L17.8481002,3.83054713 C17.854018,3.87786806 17.8610739,3.92437311 17.869723,3.97041193 C17.8731371,3.98812815 17.8767789,4.00619401 17.8805343,4.02402677 C17.8885006,4.06225648 17.8972635,4.10001998 17.9070507,4.13708415 C17.9197967,4.18522096 17.9332255,4.23242532 17.9484753,4.27881381 C17.967253,4.33557561 17.9871686,4.39117187 18.0092466,4.44501982 C18.0442982,4.53068701 18.0825364,4.61285757 18.1239609,4.69013287 C18.148315,4.73558893 18.1732381,4.77987944 18.1990716,4.82218855 C18.2198977,4.85622232 18.2411791,4.88862432 18.2628018,4.92079323 C18.2910251,4.96275267 18.3205004,5.00319691 18.3495204,5.04165973 C18.3802474,5.08245363 18.4121126,5.12056678 18.4428397,5.15704819 C18.481533,5.20250425 18.5205677,5.24423058 18.5581231,5.28257685 L18.5786078,5.30297379 C18.60979,5.33374404 18.643476,5.36707849 18.6825107,5.40087915 C18.7090271,5.42395684 18.7364538,5.44820007 18.7663842,5.4722102 C18.7942662,5.49458856 18.8229449,5.51766625 18.8537857,5.54016118 C18.8904305,5.56696859 18.9288963,5.59447534 18.9698657,5.62151587 C19.0131112,5.64995504 19.0586328,5.67862733 19.1072271,5.70636717 C19.2031638,5.76138067 19.3090015,5.81417962 19.4255367,5.86219987 C19.4690098,5.87991608 19.5140762,5.89716608 19.5607358,5.91348364 C19.6068264,5.92956808 19.654055,5.94460355 19.7032183,5.9591728 C19.7867504,5.98341603 19.8747209,6.00521163 19.9670159,6.02362716 C20.0412161,6.03842952 20.1186027,6.05066769 20.198493,6.06057477 C20.2779282,6.07036531 20.3600947,6.07805788 20.4454477,6.08237038 C20.4867585,6.08446835 20.5287522,6.0861001 20.5714287,6.08679943 C20.5910029,6.08714909 20.6109185,6.0876153 20.6306067,6.0876153 C20.7834454,6.0876153 20.924676,6.08178761 21.0554367,6.07059842 L21.0811565,6.06826734 C21.1335063,6.06337207 21.18358,6.05777748 21.2325157,6.05171668 C21.3071711,6.04215924 21.3787538,6.03073695 21.4464671,6.01849879 C21.4893713,6.01034001 21.530682,6.00183156 21.5710825,5.99309002 C21.6336746,5.97933664 21.6930803,5.96441773 21.7499822,5.9490326 C21.7917483,5.93772686 21.8323763,5.92572181 21.8711834,5.91371674 C21.9178431,5.8993806 21.9630233,5.88411202 22.0054721,5.86919311 L22.0468968,5.85439075 C22.0673815,5.8469313 22.095491,5.83667455 22.128608,5.82338739 C22.1723087,5.80590429 22.2251137,5.78457491 22.2850884,5.75835027 C22.320709,5.74261547 22.35963,5.72478271 22.3993476,5.70590096 C22.4346268,5.6895834 22.4721821,5.67093476 22.5095098,5.65228612 L22.5573074,5.62862566 L22.5573074,4.67404842 L22.5239629,4.69479503 L22.4600051,4.73442339 C22.3962749,4.77405175 22.3348207,4.81111592 22.2730251,4.84561591 C22.2053119,4.88314629 22.1393056,4.91787938 22.0738682,4.94958207 C21.9584711,5.00517833 21.8481951,5.05214959 21.7411055,5.09142828 C21.5381931,5.16602284 21.3514409,5.21380998 21.1868804,5.24294848 C21.1675336,5.2464451 21.148187,5.24970861 21.1292955,5.25273902 C21.083774,5.26008192 21.0405285,5.26555996 20.9986487,5.27022212 C20.9335527,5.27756502 20.8734643,5.28129475 20.8188384,5.28397549 C20.7835592,5.28549069 20.750556,5.28630657 20.719829,5.28630657 C20.6538227,5.28630657 20.5857679,5.28455826 20.5164613,5.27954644 C20.4353191,5.27371874 20.3525836,5.26439442 20.2692792,5.24994173 C20.1344214,5.22686403 19.9992224,5.19166473 19.8667546,5.14271205 C19.8474079,5.1354857 19.8277198,5.12732692 19.8082593,5.11940124 L19.7703627,5.1035499 C19.7485123,5.09399247 19.7271172,5.0845516 19.7054944,5.07417829 C19.6602004,5.05203303 19.6147926,5.02837258 19.5706368,5.00284725 C19.549014,4.99002631 19.5276189,4.97673915 19.504858,4.96240301 C19.4827801,4.94806687 19.4604745,4.93326451 19.4390794,4.91811249 C19.4117664,4.89853142 19.3849086,4.87871724 19.3585061,4.85750441 C19.3334693,4.83710746 19.3072944,4.81531186 19.2856717,4.79573079 L19.254717,4.76729162 L19.2302491,4.74398082 L19.2188687,4.73290819 C19.1771027,4.69024942 19.1386369,4.647241 19.1036991,4.60423258 C19.0841249,4.57998934 19.0656886,4.55574612 19.0481628,4.53126978 C19.0310922,4.50795897 19.0155011,4.48394885 19.0003651,4.46063805 C18.985912,4.43849279 18.9723694,4.41564821 18.9596234,4.3933864 C18.9402767,4.35958573 18.9227508,4.32578507 18.9067045,4.29256718 C18.8928204,4.26401145 18.880302,4.23545572 18.8684663,4.20724965 C18.8484369,4.15946252 18.8312525,4.11074294 18.8169132,4.06482067 C18.8055328,4.02892204 18.7960871,3.99313997 18.7877794,3.95875653 C18.7634253,3.85921942 18.7506793,3.76795764 18.7436235,3.69068234 C18.741006,3.66061141 18.7390713,3.63298811 18.7379333,3.60746278 C18.7362262,3.56923307 18.7356572,3.53613174 18.7356572,3.50955742 C18.7356572,3.49207433 18.7358848,3.47202704 18.7367952,3.44894935 C18.7388437,3.39440208 18.7430544,3.32540211 18.7542073,3.2466116 C18.7610354,3.19882447 18.770595,3.14754072 18.7828858,3.09392588 C18.7911935,3.0581438 18.8010945,3.02212861 18.8122472,2.98459822 C18.8224896,2.95056445 18.834439,2.91641413 18.8475265,2.88133138 C18.8560618,2.85767091 18.8659627,2.83412701 18.8759774,2.81023344 C18.8896339,2.77794799 18.9048836,2.74577908 18.9212715,2.71291085 C18.9335623,2.68843451 18.9472187,2.66395817 18.9611028,2.63913218 C18.9918298,2.58470145 19.0265401,2.53073695 19.0658025,2.47712212 L19.1099583,2.419661 L19.1403725,2.38272795 L19.1723229,2.34623197 C19.1833619,2.33434347 19.1942871,2.32175563 19.2057813,2.30986713 C19.3764872,2.13503613 19.5688159,2.00402944 19.7677451,1.91125246 L19.8143478,1.89063697 L19.861292,1.87115788 C19.8931571,1.85833694 19.9242255,1.84691465 19.9564321,1.83572547 C19.9908009,1.82407006 20.0258525,1.81311399 20.0603351,1.80309035 C20.0931106,1.79376603 20.1263414,1.78560725 20.1587755,1.77779813 C20.191551,1.76998901 20.2247818,1.76346199 20.2572159,1.75728462 C20.2932918,1.75029139 20.3292539,1.7449299 20.3649882,1.73980152 C20.4009503,1.73513937 20.4366848,1.73117653 20.471964,1.72814612 C20.5400188,1.72208532 20.6067078,1.71905491 20.6716899,1.71905491 L20.7365581,1.71940457 C20.7846973,1.72057011 20.8319259,1.72220187 20.8779026,1.72523227 C20.9099953,1.72756335 20.9411777,1.72954478 20.9719046,1.73245862 C21.0307414,1.73805322 21.0874157,1.74551267 21.141245,1.75390456 C21.1890426,1.76124746 21.2354746,1.7697559 21.2787201,1.7783809 C21.3458645,1.79201771 21.4068634,1.80728629 21.461603,1.8219721 C21.4974513,1.83152952 21.5302269,1.84155316 21.560271,1.85064437 C21.6053375,1.86439774 21.643917,1.87675247 21.6738474,1.88735888 C21.7256282,1.90565787 21.754193,1.91649738 21.754193,1.91649738 C21.800056,1.93316461 21.8446672,1.95169669 21.8889369,1.96976256 C21.9481149,1.99400579 22.0045617,2.02046356 22.05896,2.04552267 C22.1041402,2.06626927 22.1468167,2.08794831 22.187217,2.10811216 C22.2204478,2.12466282 22.2512886,2.14144661 22.2805362,2.15683172 C22.3315205,2.18363915 22.3745384,2.2083486 22.4100452,2.22792967 L22.5050714,2.28096173 L22.5050714,1.34386759 C22.5050714,1.34386759 22.4478281,1.31962437 22.3491601,1.28162776 C22.3056869,1.26461087 22.2542476,1.24468015 22.1957523,1.22335076 C22.1630905,1.21169536 22.1290632,1.19887442 22.0925321,1.18640315 C22.0636259,1.1763795 22.0338093,1.16542343 22.0026271,1.15528323 C21.967803,1.14397749 21.9317272,1.13162276 21.8942857,1.12008392 C21.8675418,1.11192514 21.8396598,1.10318359 21.8118916,1.09502481 L21.7868548,1.08779846 C21.7597694,1.07987279 21.7322289,1.07194712 21.7040055,1.06425455 C21.6710023,1.0552799 21.6372025,1.04642179 21.6029475,1.0377968 L21.5369413,1.02147924 C21.5007516,1.01308735 21.4641067,1.00481201 21.4270066,0.997002899 C21.3894514,0.988494451 21.3509856,0.981384662 21.3124061,0.974158313 C21.2808824,0.968447168 21.2481069,0.962969129 21.2148761,0.9577242 L21.1755,0.9518965 C21.1200774,0.944087382 21.0635169,0.937560358 21.0066149,0.93208232 C20.9679216,0.928236039 20.9292283,0.925555296 20.8907625,0.923224216 C20.8221387,0.918911719 20.7541977,0.917163409 20.6888742,0.917163409 Z M11.8714584,0.981384662 L10.2736511,0.981384662 L10.2737649,6.02292783 L12.1268345,6.02292783 C12.1268345,6.02292783 13.0304379,6.04856972 13.5293543,5.53736388 C13.8729372,5.18547839 13.904937,4.78677751 13.9066509,4.67242897 L13.9067676,4.60683342 C13.9056804,4.48844894 13.8776732,4.07861887 13.5595124,3.75257251 C13.2391542,3.42458957 12.8300291,3.33717406 12.8300291,3.33717406 C12.8300291,3.33717406 13.0148467,3.24835992 13.156874,3.10290053 C13.2233355,3.03471644 13.4598201,2.81594458 13.4598201,2.28492458 C13.4598201,1.74994173 13.1119214,1.44223916 13.1119214,1.44223916 C13.1119214,1.44223916 12.7312472,0.981384662 11.8714584,0.981384662 Z M3.50288541,0.981384662 L1.90507803,0.981384662 L1.90519183,6.02292783 L3.75814766,6.02292783 C3.75814766,6.02292783 4.66175098,6.04856972 5.16066747,5.53736388 C5.50444293,5.18547839 5.53630938,4.78677751 5.53797774,4.67242897 L5.53758614,4.64024776 C5.53758614,4.64024776 5.56694756,4.13790003 5.19093932,3.75257251 C4.87058122,3.42458957 4.46145604,3.33717406 4.46145604,3.33717406 C4.46145604,3.33717406 4.64638745,3.24835992 4.78830096,3.10290053 C4.85464866,3.03471644 5.09124706,2.81594458 5.09124706,2.28492458 C5.09124706,1.74994173 4.74357602,1.44223916 4.74357602,1.44223916 C4.74357602,1.44223916 4.36278802,0.981384662 3.50288541,0.981384662 Z M11.5677886,3.86002877 L11.9983498,3.86015185 C12.0293045,3.86015185 12.0607144,3.86143395 12.0905311,3.86341536 C12.1250137,3.86539678 12.1580168,3.86772787 12.19102,3.87122449 C12.244394,3.87623631 12.2967438,3.88404543 12.3460209,3.89336974 C12.4422991,3.91201838 12.5301557,3.93800992 12.6084529,3.97262646 C12.6676309,3.99896766 12.7222568,4.02973792 12.7700544,4.06563655 C12.7985054,4.08708249 12.8244527,4.1108595 12.8483515,4.13533584 C12.8605286,4.14780712 12.8719089,4.16097772 12.8821513,4.17414832 C12.936891,4.24326485 12.9677318,4.31902494 12.9841196,4.38429519 C12.9933757,4.42097084 12.9977761,4.45609245 13.0000185,4.48330565 L13.0021007,4.51739985 L13.0020543,4.55641954 C13.0019363,4.56325737 13.0015317,4.57657043 13.000166,4.59490826 C12.9964105,4.65843018 12.9789984,4.77078823 12.9107161,4.88104832 C12.8897762,4.91484898 12.8638288,4.94829998 12.8325328,4.98035233 C12.751163,5.06380499 12.6445286,5.12045023 12.5349355,5.15821372 C12.4140757,5.20017316 12.2898018,5.21788937 12.1946616,5.22698059 C12.1443603,5.23129308 12.1028219,5.23280828 12.0734604,5.23397383 C12.0544173,5.23475085 12.0403309,5.23521707 12.0330559,5.23544155 L11.1554041,5.23560558 L11.1550627,3.85980219 L11.4754726,3.85998451 C11.5053462,3.85999948 11.5362772,3.86001438 11.5677886,3.86002877 Z M3.19966163,3.86002877 L3.63000442,3.86015185 C3.66095909,3.86015185 3.69236898,3.86143395 3.72218561,3.86341536 C3.75666821,3.86539678 3.78967135,3.86772787 3.8226745,3.87122449 C3.87616235,3.87623631 3.92839836,3.88404543 3.97767546,3.89336974 C4.07418121,3.91201838 4.16181025,3.93800992 4.24010736,3.97262646 C4.29928541,3.99896766 4.35391131,4.02973792 4.40170897,4.06563655 C4.43015995,4.08708249 4.45599345,4.1108595 4.47989228,4.13533584 C4.49206929,4.14780712 4.5034497,4.16097772 4.51369205,4.17414832 C4.56843174,4.24326485 4.5991588,4.31902494 4.61554658,4.38429519 C4.62472676,4.42097084 4.62920305,4.45609245 4.63143698,4.48330565 L4.6334138,4.51739985 L4.63339694,4.55641954 C4.63331264,4.56325737 4.63295858,4.57657043 4.63159293,4.59490826 C4.6277236,4.65843018 4.61053921,4.77078823 4.54202923,4.88104832 C4.52131691,4.91484898 4.49536961,4.94829998 4.46384592,4.98035233 C4.3825899,5.06380499 4.27595561,5.12045023 4.16636241,5.15821372 C4.04550261,5.20017316 3.92111491,5.21788937 3.82608862,5.22698059 C3.77578727,5.23129308 3.73447643,5.23280828 3.70488741,5.23397383 C3.68584422,5.23475085 3.67175782,5.23521707 3.6644828,5.23544155 L2.78683099,5.23560558 L2.78683099,3.86026841 L2.7870586,3.85980219 L3.10737831,3.85998451 C3.13724179,3.85999948 3.168162,3.86001438 3.19966163,3.86002877 Z M11.1554041,1.76870692 L11.7369422,1.76870692 C11.7756355,1.76870692 11.8210433,1.76952279 11.8708895,1.77301941 C11.98549,1.78071197 12.1214857,1.80215791 12.2404109,1.85577275 C12.302434,1.88386226 12.3600188,1.92080988 12.4074751,1.96859702 C12.4468512,2.00845849 12.4756436,2.0494855 12.496925,2.09214426 C12.5405118,2.18107496 12.5520061,2.27338573 12.5549649,2.33026408 C12.5567858,2.36406473 12.5558754,2.38562722 12.5558754,2.38562722 C12.5558754,2.38562722 12.556103,2.41429951 12.5522337,2.45940591 C12.5479091,2.50999035 12.5374391,2.58143795 12.5076226,2.6560325 C12.4831547,2.71687369 12.4461684,2.77957974 12.3904044,2.83575876 C12.3200737,2.90650705 12.2297133,2.95674181 12.1354836,2.99112525 C12.1123814,2.99951714 12.088824,3.00697659 12.0653804,3.01373672 C11.9452034,3.04812015 11.8249126,3.06047487 11.7380803,3.06711845 C11.7070118,3.06875021 11.6721878,3.07084818 11.6430539,3.07178061 L11.6252853,3.07227165 L11.6252853,3.07227165 L11.1554041,3.07294616 L11.1554041,1.76870692 L11.7369422,1.76870692 Z M2.78671719,1.76870692 L3.36825534,1.76870692 C3.40694869,1.76870692 3.45235646,1.76952279 3.50208879,1.77301941 C3.61668936,1.78071197 3.75279888,1.80215791 3.87161019,1.85577275 C3.93363334,1.88386226 3.99121813,1.92080988 4.03867438,1.96859702 C4.07805055,2.00845849 4.10684294,2.0494855 4.12812429,2.09214426 C4.17159738,2.18107496 4.18320539,2.27338573 4.18616429,2.33026408 C4.18673331,2.34153096 4.18702415,2.35143805 4.18715902,2.35964 L4.18707472,2.38562722 C4.18707472,2.38562722 4.18730233,2.41429951 4.183433,2.45940591 C4.17910845,2.50999035 4.16863848,2.58143795 4.13870804,2.6560325 C4.114354,2.71687369 4.07748152,2.77957974 4.02171759,2.83575876 C3.95138675,2.90650705 3.86102643,2.95674181 3.76679676,2.99112525 C3.74369456,2.99951714 3.72013714,3.00697659 3.69669353,3.01373672 C3.57651656,3.04812015 3.4562258,3.06047487 3.36939338,3.06711845 C3.33843871,3.06875021 3.30372851,3.07084818 3.27448089,3.07178061 L3.2567122,3.07227165 L3.2567122,3.07227165 L2.78683099,3.07294616 L2.78671719,1.76870692 L3.36825534,1.76870692 Z" id="Combined-Shape"></path>
            </g>
        </g>
    </g>
</svg>