<?xml version="1.0" encoding="UTF-8"?>
<svg width="24px" height="20px" viewBox="0 0 24 20" version="1.1" xmlns="http://www.w3.org/2000/svg" xmlns:xlink="http://www.w3.org/1999/xlink">
    <!-- Generator: Sketch 58 (84663) - https://sketch.com -->
    <title>Shape</title>
    <desc>Created with Sketch.</desc>
    <g id="Page-1" stroke="none" stroke-width="1" fill="none" fill-rule="evenodd">
        <g id="Artboard" fill="#FFFFFF" fill-rule="nonzero">
            <g id="crown">
                <path d="M10.2404352,3.22962963 C10.1224407,3.46666667 10.0044463,3.55555556 10.0339449,3.73333333 C10.0634435,3.91111112 10.2404352,4 10.2994324,4.17777777 C10.3879282,3.97037037 10.5059226,3.85185186 10.5059226,3.67407407 L10.2404352,3.22962963 L10.2404352,3.22962963 Z M13.1607969,3.22962963 C13.5147801,3.97037037 13.3082899,3.76296296 13.0723011,4.17777777 C12.9838053,3.97037037 12.8658109,3.85185186 12.8658109,3.67407407 C12.9248081,3.58518519 13.1017997,3.34814814 13.1607969,3.22962963 L13.1607969,3.22962963 Z M8.58851336,3.11111112 C8.70650777,3.11111112 8.79500359,3.02222223 8.79500359,2.9037037 C8.79500359,2.63703704 8.41152174,2.63703704 8.41152174,2.9037037 C8.38202313,3.05185186 8.47051895,3.11111112 8.58851336,3.11111112 L8.58851336,3.11111112 Z M8.70650777,3.40740742 C8.70650777,3.14074074 8.32302592,3.14074074 8.32302592,3.40740742 C8.32302592,3.67407407 8.70650777,3.64444444 8.70650777,3.40740742 L8.70650777,3.40740742 Z M8.79500359,3.88148149 C8.79500359,3.61481481 8.41152174,3.61481481 8.41152174,3.88148149 C8.41152174,4.14814814 8.79500359,4.14814814 8.79500359,3.88148149 L8.79500359,3.88148149 Z M9.67996169,2.19259258 C9.94544913,2.19259258 9.94544913,1.80740742 9.67996169,1.80740742 C9.41447426,1.80740742 9.41447426,2.19259258 9.67996169,2.19259258 L9.67996169,2.19259258 Z M9.17848543,2.34074074 C9.44397285,2.34074074 9.44397285,1.95555556 9.17848543,1.95555556 C8.912998,1.95555556 8.912998,2.34074074 9.17848543,2.34074074 L9.17848543,2.34074074 Z M8.79500359,2.66666667 C9.06049102,2.66666667 9.06049102,2.28148149 8.79500359,2.28148149 C8.55901475,2.28148149 8.55901475,2.66666667 8.79500359,2.66666667 L8.79500359,2.66666667 Z M10.181438,2.22222223 C10.4469254,2.22222223 10.4469254,1.83703704 10.181438,1.83703704 C9.91595052,1.83703704 9.91595052,2.22222223 10.181438,2.22222223 L10.181438,2.22222223 Z M10.6829142,2.37037037 C10.9484016,2.37037037 10.9484016,1.98518519 10.6829142,1.98518519 C10.3879282,1.98518519 10.4174268,2.37037037 10.6829142,2.37037037 L10.6829142,2.37037037 Z M11.1253933,2.57777777 C11.3908807,2.57777777 11.3908807,2.19259258 11.1253933,2.19259258 C10.8599058,2.19259258 10.8599058,2.57777777 11.1253933,2.57777777 L11.1253933,2.57777777 Z M14.6357271,2.93333333 C14.6357271,3.2 15.0192089,3.2 15.0192089,2.93333333 C15.0192089,2.66666667 14.6357271,2.66666667 14.6357271,2.93333333 L14.6357271,2.93333333 Z M14.8717159,3.2 C14.6062285,3.2 14.6062285,3.58518519 14.8717159,3.58518519 C14.9897103,3.58518519 15.0782061,3.4962963 15.0782061,3.37777777 C15.0782061,3.28888888 14.9897103,3.2 14.8717159,3.2 L14.8717159,3.2 Z M14.7832201,3.67407407 C14.5177327,3.67407407 14.5177327,4.05925926 14.7832201,4.05925926 C14.9012145,4.05925926 14.9897103,3.97037037 14.9897103,3.85185186 C14.9897103,3.76296296 14.9012145,3.67407407 14.7832201,3.67407407 L14.7832201,3.67407407 Z M13.7212704,2.19259258 C13.9867578,2.19259258 13.9867578,1.80740742 13.7212704,1.80740742 C13.603276,1.80740742 13.5147801,1.8962963 13.5147801,2.01481481 C13.5147801,2.07407407 13.603276,2.19259258 13.7212704,2.19259258 L13.7212704,2.19259258 Z M14.2227466,2.34074074 C14.4882341,2.34074074 14.4882341,1.95555556 14.2227466,1.95555556 C13.9572592,1.95555556 13.9572592,2.34074074 14.2227466,2.34074074 L14.2227466,2.34074074 Z M14.6062285,2.66666667 C14.8717159,2.66666667 14.8717159,2.28148149 14.6062285,2.28148149 C14.4882341,2.28148149 14.3997383,2.37037037 14.3997383,2.48888888 C14.3997383,2.60740742 14.5177327,2.66666667 14.6062285,2.66666667 L14.6062285,2.66666667 Z M13.2197941,2.22222223 C13.4852815,2.22222223 13.4852815,1.83703704 13.2197941,1.83703704 C12.9543067,1.83703704 12.9838053,2.22222223 13.2197941,2.22222223 L13.2197941,2.22222223 Z M12.7478165,2.37037037 C13.0133039,2.37037037 13.0133039,1.98518519 12.7478165,1.98518519 C12.4528304,1.98518519 12.4528304,2.37037037 12.7478165,2.37037037 L12.7478165,2.37037037 Z M12.0693486,2.4 C12.0693486,2.51851851 12.1578444,2.60740742 12.2758388,2.60740742 C12.5413262,2.60740742 12.5413262,2.22222223 12.2758388,2.22222223 C12.1578444,2.19259258 12.0693486,2.28148149 12.0693486,2.4 L12.0693486,2.4 Z M11.3613821,3.46666667 L11.5973709,3.46666667 L11.5973709,2.63703704 C11.5088751,2.63703704 11.4498779,2.60740742 11.3613821,2.57777777 L11.3613821,3.46666667 Z M12.03985,2.54814814 C11.9808528,2.57777777 11.892357,2.60740742 11.8038611,2.60740742 L11.8038611,3.43703704 L12.03985,3.43703704 L12.03985,2.54814814 L12.03985,2.54814814 Z M11.5678723,1.6 L11.5678723,1.12592593 C11.3023849,1.18518519 11.1253933,1.39259259 11.0958947,1.62962963 L11.5678723,1.6 Z M11.8333597,1.6 L12.3053374,1.6 C12.2463402,1.33333333 12.0693486,1.15555556 11.8333597,1.0962963 L11.8333597,1.6 Z M11.0958947,1.86666667 C11.2433877,2.51851851 12.1578444,2.51851851 12.3053374,1.86666667 L11.0958947,1.86666667 Z M12.03985,1.03703704 C11.892357,0.918518519 11.7743625,0.77037037 11.7743625,0.592592593 C11.9513542,0.622222223 12.0988472,0.740740742 12.2168416,0.859259258 L12.2168416,0.207407407 C12.0988472,0.355555556 11.9513542,0.474074074 11.7743625,0.474074074 C11.8038611,0.296296296 11.892357,0.177777777 12.03985,0 L11.3908807,0 C11.5383737,0.177777777 11.6563681,0.296296296 11.6563681,0.474074074 C11.4498779,0.444444444 11.3023849,0.355555556 11.1843905,0.207407407 L11.1843905,0.888888888 C11.3023849,0.740740742 11.4498779,0.622222223 11.6268695,0.622222223 C11.5973709,0.8 11.4793765,0.948148149 11.3613821,1.06666667 C11.3318835,1.03703704 12.03985,1.03703704 12.03985,1.03703704 L12.03985,1.03703704 Z M12.03985,15.2 C11.7448639,15.2 11.7448639,14.7259259 12.03985,14.7259259 C12.3938332,14.6962963 12.3938332,15.2 12.03985,15.2 L12.03985,15.2 Z M10.8894044,14.8148148 C10.5649198,14.8148148 10.5649198,14.2814815 10.8894044,14.2814815 C11.2728863,14.2814815 11.2728863,14.8148148 10.8894044,14.8148148 L10.8894044,14.8148148 Z M10.5059226,13.6296296 C10.2404352,13.3925926 10.181438,13.4814815 9.88645192,13.8074074 C10.1519393,14.0444444 10.0929421,14.3111111 9.67996169,14.0740741 C9.41447426,14.4888889 9.41447426,14.4888889 9.88645192,14.7555556 C9.62096449,14.9333333 8.9719952,14.637037 9.47347146,13.8666667 L9.35547705,13.6592593 C9.44397285,13.6592593 9.50297007,13.6888889 9.59146587,13.7185185 C10.3879282,12.8592593 10.77141,13.8666667 10.5059226,13.6296296 L10.5059226,13.6296296 Z M12.7773151,14.5777778 C12.1578444,14.4 11.4203793,14.162963 10.7419114,13.837037 C10.77141,13.4814815 10.476424,13.2148148 10.2109365,13.2148148 C10.0339449,13.2148148 10.0634435,13.362963 9.7389589,12.9481481 C9.47347146,12.6518519 9.26698123,12.2666667 9.11948823,11.8814815 C9.03099241,11.6444444 8.9719952,11.437037 8.94249659,11.1703704 C8.912998,11.3777778 8.67700918,11.6444444 8.29352733,11.6444444 C8.35252453,11.2888889 8.20503151,11.7925926 7.64455805,11.6148148 C7.70355525,11.8814815 7.79205105,12.1481481 7.88054687,12.4444444 C8.0870371,13.0074074 8.38202313,13.5111111 8.76550498,13.9259259 C8.88349939,14.0740741 9.03099241,14.1925926 9.14898682,14.3111111 L9.14898682,14.4 C9.14898682,14.6666667 9.56196728,15.1407407 9.97494772,14.8148148 C10.6534156,15.1703704 11.6563681,15.437037 12.334836,15.437037 C12.629822,15.437037 13.0428025,15.2888889 13.4262843,15.0518519 C13.603276,14.9333333 13.7212704,14.8148148 13.8687634,14.6962963 C13.5737774,14.7555556 13.1312983,14.6666667 12.7773151,14.5777778 L12.7773151,14.5777778 Z M12.5708248,17.0962963 C12.5118276,17.0074074 12.4528304,16.9481481 12.3938332,16.9481481 C12.1283458,16.9481481 12.2463402,17.6296296 11.9513542,17.6296296 C11.8038611,17.6296296 11.7448639,17.5407407 11.7448639,17.4518519 L11.8038611,17.2444444 C11.8038611,17.0962963 11.5383737,17.0962963 11.5383737,17.2444444 L11.5973709,17.4518519 C11.5973709,17.5407407 11.5088751,17.6296296 11.3908807,17.6296296 C11.0958947,17.6296296 11.1843905,16.9481481 10.9484016,16.9481481 C10.8894044,16.9481481 10.8304072,17.0074074 10.77141,17.0962963 C10.5944184,16.7703704 10.77141,16.5333333 11.0073989,16.5333333 C11.3318835,16.5333333 11.2728863,16.9777778 11.4203793,16.9777778 C11.5088751,16.9777778 11.5383737,16.9185185 11.5383737,16.8592593 C11.5383737,16.5925926 10.918903,16.5333333 11.6563681,15.9407407 C12.3938332,16.5333333 11.7743625,16.5925926 11.7743625,16.8592593 C11.7743625,16.9185185 11.8333597,16.9777778 11.892357,16.9777778 C12.0693486,16.9777778 11.9808528,16.5333333 12.3053374,16.5333333 C12.5118276,16.5333333 12.5708248,16.7111111 12.5708248,16.8 C12.6593206,16.8888889 12.629822,16.9777778 12.5708248,17.0962963 L12.5708248,17.0962963 Z M11.7153653,18.0148149 C11.4793765,18.0148149 11.4793765,17.6888889 11.7153653,17.6888889 C11.9218556,17.6888889 11.9218556,18.0148149 11.7153653,18.0148149 L11.7153653,18.0148149 Z M12.3938332,16.3851852 C12.334836,16.3851852 12.3053374,16.3851852 12.2758388,16.4148148 L12.2758388,15.6740741 C11.9513542,15.6740741 11.5678723,15.6148148 11.1843905,15.4962963 L11.1843905,16.3851852 C10.8009086,16.237037 10.3584296,16.7111111 10.8599058,17.2444444 C11.1253933,16.562963 11.0368974,17.6592593 11.4793765,17.6888889 C11.4793765,17.7185186 11.4498779,17.7481481 11.4498779,17.8074074 C11.4498779,18.2518519 12.187343,18.1333333 12.0103514,17.6888889 C12.4528304,17.6592593 12.2758388,16.562963 12.629822,17.2444444 C12.7183179,17.1259259 12.8363123,16.9777778 12.8363123,16.7703704 C12.8068137,16.6222222 12.629822,16.3851852 12.3938332,16.3851852 L12.3938332,16.3851852 Z M21.0664226,17.3037037 C21.036924,17.2740741 21.0074255,17.2444444 20.9779269,17.2444444 C19.0605176,17.8074074 15.4911866,13.0074074 14.340741,15.762963 C13.9572592,16.7111111 13.2492927,17.037037 14.5767299,17.6888889 C14.7537215,17.7777777 14.8422173,17.837037 14.8717159,17.9259258 C13.603276,18.4888888 11.4203793,18.6074074 9.85695331,18.3111112 C7.96904269,17.9851851 8.58851336,17.8074074 9.03099241,17.5703704 C10.1519393,16.9777778 9.50297007,16.7407407 9.11948823,15.762963 C8.38202313,14.0148148 6.25812368,15.5555556 5.49115999,16.0888889 C4.45870886,16.8 3.39675914,17.4814815 2.51180103,17.2444444 C2.42330522,17.2148148 2.36430801,17.362963 2.45280381,17.3925926 C3.78024099,17.9851851 3.51475355,19.2 6.19912648,17.362963 C6.87759435,16.8888889 7.58556084,16.4148148 8.26402872,16.3555556 C7.32007341,17.3333333 7.70355525,16.9185185 8.23453012,18.8444444 C8.50001754,19.9407407 10.623917,20 11.7743625,20 C13.1607969,20 14.1342508,19.8518519 14.6947243,19.5555556 C15.5206852,19.1407407 15.1667019,18.7555556 15.6681782,17.7777777 C16.1106573,16.9481481 15.6976768,16.8 15.2551978,16.3555556 C16.6416321,16.4740741 18.1165623,18.3407407 19.4145009,18.3407407 C19.9749743,18.3407407 20.4174535,17.6592593 21.0664226,17.3925926 L21.0664226,17.3037037 L21.0664226,17.3037037 Z M11.8333597,10.5481481 L11.8333597,7.28888888 C13.3967857,7.37777777 14.4882341,8.85925926 14.5177327,10.5481481 L11.8333597,10.5481481 Z M11.7153653,5.92592593 C10.8009086,5.92592593 10.1519393,6.19259258 9.7979561,6.42962963 C9.56196728,6.28148149 9.50297007,6.16296296 9.50297007,6.04444444 C9.50297007,5.51111112 10.9779002,5.48148149 11.7448639,5.48148149 C12.5118276,5.48148149 13.9867578,5.54074074 13.9867578,6.04444444 C13.9867578,6.19259258 13.898262,6.31111112 13.6917718,6.42962963 C13.2492927,6.19259258 12.629822,5.92592593 11.7153653,5.92592593 L11.7153653,5.92592593 Z M11.6563681,10.5481481 L8.88349939,10.5481481 C8.912998,8.77037037 10.1224407,7.31851851 11.6563681,7.28888888 L11.6563681,10.5481481 Z M15.8451698,10.3407407 C15.756674,10.2518519 15.5796824,10.1037037 15.5206852,9.95555556 C14.8717159,8.59259258 14.6947243,8.59259258 14.9307131,8.2962963 L15.1962006,8.02962963 C14.9012145,7.52592593 14.3997383,6.96296296 13.8097662,6.57777777 C13.9867578,6.45925926 14.1342508,6.31111112 14.1342508,6.04444444 C14.1342508,5.8962963 14.0752536,5.77777777 13.9572592,5.68888888 C14.1342508,5.12592593 14.4292369,4.44444444 14.7242229,4.17777777 L14.1637494,3.94074074 C14.3112424,4.17777777 14.340741,4.41481481 14.2817438,4.56296296 C14.1342508,4.44444444 14.0162564,4.2962963 13.9867578,4.14814814 C13.9572592,4.32592593 13.8687634,4.59259258 13.7802676,4.77037037 C13.9572592,4.68148149 14.045755,4.65185186 14.2227466,4.71111112 C13.898262,5.15555556 13.1312983,4.91851851 13.1312983,4.62222223 C13.1312983,4.53333333 13.2197941,4.41481481 13.3377885,4.41481481 C13.4557829,4.41481481 13.4852815,4.62222223 13.4262843,4.68148149 C13.603276,4.59259258 13.750769,4.11851851 13.5147801,4.05925926 C13.3082899,4 13.1607969,4.2962963 13.0723011,4.47407407 C12.9248081,3.61481481 12.2758388,4.11851851 12.6593206,4.62222223 C12.6888192,4.44444444 12.7773151,4.35555556 12.8658109,4.35555556 C12.9248081,4.35555556 13.0428025,4.41481481 13.0133039,4.56296296 C12.9838053,4.71111112 12.7773151,4.82962963 12.5413262,4.82962963 C12.3053374,4.82962963 11.892357,4.74074074 11.8333597,4.2962963 C11.9808528,4.32592593 12.2168416,4.44444444 12.334836,4.59259258 C12.187343,3.37777777 12.5708248,4 11.8628583,4.14814814 C11.9218556,3.94074074 12.0693486,3.76296296 12.2463402,3.61481481 L11.2433877,3.61481481 C11.4498779,3.73333333 11.5973709,3.94074074 11.6268695,4.14814814 C11.4793765,4.11851851 11.2728863,4.02962963 11.1548919,3.85185186 C11.3023849,5.0962963 10.8894044,4.47407407 11.6268695,4.2962963 C11.5973709,4.74074074 11.1843905,4.82962963 10.9484016,4.82962963 C10.3879282,4.82962963 10.3584296,4.41481481 10.623917,4.38518519 C10.7124128,4.38518519 10.8009086,4.47407407 10.8009086,4.65185186 C11.1843905,4.14814814 10.5354212,3.64444444 10.3879282,4.5037037 C10.328931,4.2962963 10.1224407,4.02962963 9.94544913,4.08888888 C9.67996169,4.14814814 9.85695331,4.62222223 10.0339449,4.71111112 C9.88645192,4.41481481 10.2994324,4.32592593 10.2994324,4.62222223 C10.2994324,4.77037037 10.0929421,4.88888888 9.91595052,4.91851851 C9.29647985,5.06666667 8.9719952,4.38518519 9.65046308,4.71111112 C9.56196728,4.53333333 9.47347146,4.26666667 9.44397285,4.08888888 C9.38497565,4.2962963 9.26698123,4.41481481 9.14898682,4.5037037 C9.11948823,4.35555556 9.11948823,4.08888888 9.26698123,3.85185186 L8.70650777,4.08888888 C8.9719952,4.35555556 9.29647985,5.03703704 9.47347146,5.6 C9.35547705,5.68888888 9.29647985,5.83703704 9.29647985,5.95555556 C9.29647985,6.22222223 9.47347146,6.37037037 9.62096449,6.48888888 C9.32597844,6.6962963 9.03099241,6.93333333 8.79500359,7.22962963 C8.41152174,7.64444444 8.11653569,8.14814814 7.91004548,8.71111112 C7.99854128,8.8 8.32302592,9.15555556 8.38202313,9.24444444 C8.76550498,9.74814814 8.44102033,9.80740742 8.79500359,10.2518519 C8.82450218,10.3111111 8.912998,10.5185185 8.912998,10.6074074 L11.7153653,10.6074074 L11.7153653,13.6296296 C11.5973709,13.6296296 11.4793765,13.6592593 11.4203793,13.7777778 C12.7478165,14.3111111 12.187343,14.1037037 12.5118276,13.6592593 C12.5118276,13.6592593 12.1283458,13.6296296 11.892357,13.6 L11.892357,10.7259259 L14.5767299,10.7259259 C14.4882341,13.362963 12.6593206,13.3037037 12.5708248,14.3111111 C12.7183179,14.3407407 12.7773151,14.3703704 12.8658109,14.4 C14.1047522,14.6962963 14.1047522,14.6666667 14.6947243,13.9555556 C15.0782061,13.5407407 15.3731922,13.037037 15.5796824,12.4740741 C15.7861726,11.762963 15.8746684,10.962963 15.8451698,10.3407407 L15.8451698,10.3407407 Z M13.3377885,8.62222223 C13.3082899,8.65185186 13.3082899,8.68148149 13.3082899,8.71111112 C13.3082899,8.74074074 13.3377885,8.77037037 13.3967857,8.77037037 C13.3672871,8.8 13.3377885,8.82962963 13.3377885,8.88888888 C13.3967857,8.88888888 13.4262843,8.88888888 13.4852815,8.85925926 C13.4852815,8.91851851 13.4852815,8.94814814 13.5147801,8.94814814 L13.603276,8.94814814 C13.8097662,9.27407407 13.9277606,9.65925926 13.9867578,10.0444444 C13.9572592,10.0148148 13.9277606,10.0148148 13.8687634,10.0148148 C13.8687634,10.0740741 13.898262,10.1037037 13.9277606,10.1333333 L13.2492927,10.1333333 C13.2492927,10.0740741 13.2197941,10.0444444 13.1902955,10.0444444 C13.1607969,10.0444444 13.1312983,10.0444444 13.1017997,10.0740741 C13.1017997,10.0444444 13.0723011,9.98518519 13.0428025,9.95555556 C13.0133039,9.98518519 12.9838053,10.0444444 12.9838053,10.0740741 C12.9543067,10.0444444 12.9248081,10.0148148 12.8953095,10.0444444 C12.8658109,10.0444444 12.8363123,10.1037037 12.8363123,10.1333333 L12.2463402,10.1333333 C12.2758388,10.1037037 12.2758388,10.0740741 12.2758388,10.0148148 C12.2168416,10.0148148 12.187343,10.0444444 12.1578444,10.0740741 L12.1578444,9.15555556 C12.2168416,9.15555556 12.2463402,9.12592593 12.2463402,9.0962963 C12.2463402,9.06666667 12.2463402,9.03703704 12.2168416,9.00740742 C12.2463402,9.00740742 12.3053374,8.97777777 12.334836,8.94814814 C12.3053374,8.91851851 12.2463402,8.88888888 12.2168416,8.88888888 C12.2463402,8.85925926 12.2463402,8.82962963 12.2463402,8.8 C12.2463402,8.77037037 12.187343,8.74074074 12.1578444,8.74074074 L12.1578444,7.94074074 C12.187343,7.97037037 12.2168416,7.97037037 12.2758388,7.97037037 C12.2758388,7.91111112 12.2758388,7.88148149 12.2463402,7.85185186 C12.6888192,8 13.0428025,8.26666667 13.3377885,8.62222223 L13.3377885,8.62222223 Z M14.0752536,10.0148148 C14.1342508,10.0444444 14.1047522,10.1333333 14.045755,10.1333333 C13.9867578,9.65925926 13.7802676,9.15555556 13.5147801,8.74074074 C13.5737774,8.68148149 13.6327746,8.71111112 13.6327746,8.59259258 C13.5442788,8.59259258 13.4852815,8.62222223 13.4557829,8.68148149 C13.1607969,8.26666667 12.6888192,7.88148149 12.1578444,7.76296296 C12.1578444,7.7037037 12.2463402,7.7037037 12.2758388,7.73333333 C12.2758388,7.61481481 12.1283458,7.55555556 12.0988472,7.67407407 C12.0103514,7.55555556 11.892357,7.61481481 12.0103514,7.73333333 L11.9513542,7.76296296 C11.9218556,7.79259258 11.9513542,7.88148149 12.03985,7.91111112 C12.0103514,7.88148149 12.0103514,7.79259258 12.0693486,7.82222223 L12.0693486,8.88888888 C12.0103514,8.85925926 11.9513542,8.88888888 11.892357,8.94814814 C11.9513542,9.00740742 12.0103514,9.00740742 12.0693486,9.00740742 L12.0693486,10.1333333 C12.0103514,10.1333333 11.9808528,10.0740741 12.03985,10.0444444 C11.892357,10.0444444 11.892357,10.2222222 12.0103514,10.2222222 C11.9808528,10.2518519 11.9513542,10.2814815 11.9513542,10.3407407 C12.0103514,10.3407407 12.03985,10.3111111 12.0693486,10.2814815 C12.0693486,10.3407407 12.0988472,10.3703704 12.1283458,10.3703704 C12.1578444,10.4 12.2463402,10.3407407 12.2463402,10.2518519 C12.2168416,10.3111111 12.1283458,10.2814815 12.1283458,10.2222222 L12.9248081,10.2222222 C12.8953095,10.2814815 12.9248081,10.3407407 12.9838053,10.4 C13.0428025,10.3407407 13.0428025,10.2814815 13.0428025,10.2222222 L13.9277606,10.2222222 C13.9277606,10.2814815 13.8687634,10.3111111 13.8392648,10.2518519 C13.8392648,10.3407407 13.9277606,10.3703704 13.9572592,10.3703704 C13.9867578,10.3703704 14.0162564,10.3407407 13.9867578,10.2814815 C14.0162564,10.3111111 14.045755,10.3407407 14.1047522,10.3407407 C14.1047522,10.2814815 14.0752536,10.2518519 14.045755,10.2222222 C14.1047522,10.2222222 14.1342508,10.1925926 14.1342508,10.162963 C14.2227466,10.1037037 14.1637494,10.0148148 14.0752536,10.0148148 L14.0752536,10.0148148 Z M13.603276,9.71851851 L13.6917718,9.65925926 L13.603276,9.65925926 C13.6327746,9.62962963 13.6622732,9.65925926 13.6327746,9.6 C13.603276,9.54074074 13.5737774,9.54074074 13.5442788,9.57037037 C13.5147801,9.6 13.2787913,9.57037037 13.2787913,9.39259258 C13.3082899,9.42222223 13.3377885,9.45185186 13.3672871,9.45185186 L13.5147801,9.45185186 C13.5737774,9.45185186 13.603276,9.42222223 13.603276,9.36296296 C13.603276,9.27407407 13.5147801,9.21481481 13.4262843,9.15555556 L13.3377885,9.06666667 C13.3082899,9.00740742 13.3377885,8.94814814 13.2492927,8.82962963 C13.2492927,8.8 13.2492927,8.77037037 13.2197941,8.71111112 C13.1607969,8.8 13.1607969,8.94814814 13.2787913,9.03703704 C13.3672871,9.15555556 13.5442788,9.24444444 13.5442788,9.3037037 C13.5442788,9.33333333 13.5147801,9.33333333 13.4852815,9.36296296 L13.4262843,9.36296296 C13.4262843,9.36296296 13.3967857,9.36296296 13.3967857,9.33333333 C13.3672871,9.33333333 13.3377885,9.3037037 13.3377885,9.27407407 C13.2492927,9.18518519 13.1902955,9.06666667 13.1312983,9.00740742 C13.0428025,8.88888888 13.0723011,8.77037037 13.1017997,8.71111112 C13.1607969,8.62222223 13.0723011,8.44444444 13.0133039,8.41481481 L13.0133039,8.32592593 L12.9543067,8.32592593 L12.9543067,8.35555556 C12.9248081,8.35555556 12.9248081,8.32592593 12.9248081,8.2962963 C12.8953095,8.32592593 12.8953095,8.32592593 12.8658109,8.32592593 L12.8068137,8.32592593 C12.7773151,8.35555556 12.7773151,8.35555556 12.7478165,8.35555556 C12.7183179,8.35555556 12.7183179,8.38518519 12.7183179,8.41481481 C12.7183179,8.44444444 12.7183179,8.47407407 12.7478165,8.47407407 L12.7773151,8.5037037 L12.8068137,8.47407407 C12.8363123,8.44444444 12.8658109,8.44444444 12.8953095,8.5037037 C12.8953095,8.53333333 12.8953095,8.53333333 12.8658109,8.53333333 L12.7773151,8.53333333 C12.7478165,8.53333333 12.7478165,8.56296296 12.7478165,8.59259258 C12.7478165,8.62222223 12.7773151,8.62222223 12.8068137,8.62222223 C12.8658109,8.62222223 12.9248081,8.59259258 12.9248081,8.65185186 C12.9248081,8.74074074 12.8068137,8.74074074 12.7773151,8.85925926 C12.7478165,8.82962963 12.7183179,8.82962963 12.7183179,8.8 C12.6888192,8.77037037 12.6593206,8.74074074 12.629822,8.68148149 C12.6003234,8.65185186 12.5708248,8.62222223 12.5413262,8.62222223 C12.482329,8.59259258 12.482329,8.59259258 12.482329,8.53333333 C12.482329,8.5037037 12.5118276,8.47407407 12.482329,8.44444444 L12.482329,8.41481481 C12.482329,8.38518519 12.4528304,8.38518519 12.4233318,8.38518519 L12.4528304,8.41481481 L12.4233318,8.44444444 L12.4233318,8.5037037 C12.4233318,8.47407407 12.3938332,8.44444444 12.3938332,8.44444444 L12.3643346,8.44444444 C12.3643346,8.41481481 12.334836,8.38518519 12.3053374,8.41481481 L12.334836,8.41481481 L12.334836,8.44444444 C12.334836,8.47407407 12.3643346,8.47407407 12.3938332,8.47407407 C12.334836,8.44444444 12.334836,8.47407407 12.334836,8.5037037 L12.334836,8.53333333 C12.3053374,8.53333333 12.3053374,8.56296296 12.334836,8.59259258 L12.334836,8.56296296 L12.3643346,8.56296296 C12.334836,8.59259258 12.334836,8.62222223 12.3643346,8.62222223 C12.334836,8.65185186 12.3053374,8.65185186 12.3053374,8.59259258 C12.2758388,8.65185186 12.334836,8.71111112 12.3938332,8.68148149 L12.3938332,8.74074074 C12.3938332,8.74074074 12.3938332,8.77037037 12.4233318,8.77037037 L12.4233318,8.74074074 L12.4528304,8.77037037 C12.482329,8.82962963 12.5413262,8.94814814 12.6593206,8.97777777 C12.6003234,9.00740742 12.5708248,9.06666667 12.5118276,9.12592593 C12.482329,9.15555556 12.4233318,9.18518519 12.3938332,9.18518519 L12.3643346,9.15555556 L12.334836,9.15555556 C12.3053374,9.15555556 12.2758388,9.15555556 12.2758388,9.18518519 L12.3053374,9.18518519 L12.3053374,9.21481481 C12.3053374,9.21481481 12.3053374,9.24444444 12.3643346,9.24444444 L12.334836,9.24444444 C12.3053374,9.24444444 12.3053374,9.21481481 12.2758388,9.24444444 L12.2758388,9.27407407 C12.2463402,9.27407407 12.2168416,9.33333333 12.2463402,9.36296296 C12.2463402,9.36296296 12.2463402,9.33333333 12.2758388,9.33333333 C12.3053374,9.36296296 12.3053374,9.36296296 12.3643346,9.3037037 C12.3643346,9.33333333 12.334836,9.36296296 12.3643346,9.39259258 L12.3938332,9.39259258 C12.3938332,9.42222223 12.4528304,9.42222223 12.4528304,9.42222223 L12.4233318,9.39259258 L12.4528304,9.39259258 C12.482329,9.36296296 12.4528304,9.33333333 12.4528304,9.33333333 C12.4528304,9.33333333 12.482329,9.36296296 12.5118276,9.36296296 L12.5413262,9.33333333 C12.5413262,9.24444444 12.6003234,9.24444444 12.629822,9.24444444 C12.629822,9.21481481 12.6593206,9.18518519 12.6888192,9.18518519 L12.7773151,9.18518519 C12.7773151,9.15555556 12.8068137,9.12592593 12.8363123,9.0962963 C12.8363123,9.27407407 13.0723011,9.27407407 13.1017997,9.36296296 C13.0428025,9.33333333 12.9543067,9.3037037 12.8953095,9.33333333 C12.8363123,9.33333333 12.7478165,9.39259258 12.7183179,9.45185186 C12.7183179,9.51111112 12.7773151,9.6 12.8363123,9.62962963 L12.6888192,9.62962963 C12.629822,9.62962963 12.629822,9.54074074 12.5708248,9.57037037 L12.5413262,9.57037037 C12.5118276,9.57037037 12.482329,9.6 12.482329,9.62962963 L12.5118276,9.6 C12.5118276,9.6 12.5118276,9.62962963 12.5413262,9.62962963 L12.5708248,9.62962963 C12.5708248,9.65925926 12.482329,9.62962963 12.5118276,9.68888888 L12.5118276,9.71851851 C12.5118276,9.74814814 12.5118276,9.74814814 12.5708248,9.74814814 C12.5708248,9.74814814 12.5413262,9.74814814 12.5413262,9.71851851 L12.5708248,9.71851851 L12.5708248,9.77777777 C12.5708248,9.80740742 12.6003234,9.83703704 12.629822,9.80740742 C12.629822,9.80740742 12.6003234,9.80740742 12.6003234,9.77777777 L12.629822,9.77777777 L12.629822,9.74814814 L12.6593206,9.74814814 C12.6593206,9.74814814 12.6888192,9.77777777 12.7183179,9.77777777 C12.7183179,9.77777777 12.7478165,9.77777777 12.7478165,9.74814814 C12.7478165,9.74814814 12.7773151,9.74814814 12.7773151,9.77777777 C12.7773151,9.74814814 12.7773151,9.71851851 12.8363123,9.77777777 L12.8658109,9.74814814 C12.8658109,9.74814814 12.9248081,9.77777777 12.9248081,9.74814814 C12.9543067,9.71851851 12.9543067,9.71851851 12.9543067,9.68888888 C12.9248081,9.62962963 12.9248081,9.62962963 12.8953095,9.6 C12.8658109,9.51111112 13.0133039,9.45185186 13.0723011,9.48148149 C13.0723011,9.54074074 13.1607969,9.68888888 13.3082899,9.71851851 C13.3967857,9.74814814 13.4262843,9.65925926 13.4557829,9.65925926 L13.4557829,9.77777777 C13.4557829,9.80740742 13.3967857,9.77777777 13.3672871,9.77777777 L13.3377885,9.77777777 C13.3082899,9.77777777 13.2787913,9.80740742 13.2787913,9.83703704 C13.2787913,9.83703704 13.3082899,9.80740742 13.3377885,9.80740742 C13.3377885,9.83703704 13.3672871,9.86666667 13.3967857,9.83703704 C13.3672871,9.83703704 13.3377885,9.8962963 13.3672871,9.8962963 L13.3967857,9.8962963 C13.3967857,9.92592593 13.3967857,9.92592593 13.4262843,9.95555556 L13.4262843,9.92592593 L13.4557829,9.92592593 L13.4852815,9.86666667 L13.4852815,9.92592593 L13.5147801,9.92592593 C13.5147801,9.95555556 13.5442788,9.95555556 13.5737774,9.95555556 C13.5737774,9.95555556 13.5442788,9.95555556 13.5442788,9.92592593 L13.5737774,9.8962963 C13.603276,9.83703704 13.5442788,9.83703704 13.5442788,9.80740742 C13.5442788,9.77777777 13.5737774,9.77777777 13.603276,9.71851851 C13.603276,9.71851851 13.6327746,9.68888888 13.6327746,9.65925926 C13.6327746,9.71851851 13.603276,9.71851851 13.603276,9.71851851 L13.603276,9.71851851 Z M11.0958947,11.2296296 C10.8894044,11.2 10.918903,11.4074074 11.0368974,11.4074074 L11.0663961,11.4074074 C11.0663961,11.4666667 11.0073989,11.7333333 11.0073989,11.8222222 L10.5944184,11.2296296 C11.0073989,11.0814815 11.1548919,10.9333333 11.0958947,11.2296296 L11.0958947,11.2296296 Z M10.9484016,12.2666667 L10.2994324,11.3481481 C10.3879282,11.3185185 10.4469254,11.3185185 10.5059226,11.2888889 L10.9779002,12 L10.9484016,12.2666667 L10.9484016,12.2666667 Z M10.8599058,12.6814815 L9.97494772,11.3481481 L10.2109365,11.3481481 L10.9484016,12.4148148 L10.8599058,12.6814815 L10.8599058,12.6814815 Z M9.8274547,11.3777778 L10.8304072,12.8296296 C10.2994324,12.5925926 9.76845749,12.1185185 9.8274547,11.3777778 L9.8274547,11.3777778 Z M11.3318835,11.2592593 L11.2728863,11.2592593 C11.3023849,10.4592593 10.4469254,11.4666667 9.62096449,10.9925926 L9.56196728,11.1111111 C9.56196728,11.0518519 9.53246867,10.9925926 9.44397285,10.9925926 C9.20798403,10.9925926 9.38497565,11.3185185 9.53246867,11.1703704 L9.47347146,11.2888889 L9.53246867,11.3185185 C9.47347146,11.9703704 9.94544913,12.7703704 10.77141,13.0074074 C10.8894044,12.9777778 11.0368974,12.9777778 11.0368974,13.1259259 C11.0368974,13.3037037 10.8304072,13.2740741 10.8304072,13.1851852 C10.8304072,13.1259259 10.918903,13.1555556 10.9484016,13.1259259 C10.9484016,13.0666667 10.918903,13.037037 10.8599058,13.037037 C10.623917,13.037037 10.6534156,13.3333333 10.918903,13.3333333 C11.0073989,13.3333333 11.1843905,13.2740741 11.1843905,13.0666667 C11.2433877,13.0666667 11.2728863,13.0666667 11.3023849,13.0074074 L11.3023849,12.8592593 L11.2433877,12.8592593 L11.2728863,11.4074074 C11.4793765,11.437037 11.4498779,11.2592593 11.3318835,11.2592593 L11.3318835,11.2592593 Z M10.623917,8.14814814 L10.6534156,8.08888888 C10.6534156,8.08888888 10.5944184,8.11851851 10.6534156,8.05925926 C10.6534156,8.05925926 10.77141,8.08888888 10.7419114,8.11851851 C10.7419114,8.11851851 10.7419114,8.08888888 10.7124128,8.08888888 L10.7124128,8.11851851 L10.6534156,8.20740742 C10.5944184,8.17777777 10.5944184,8.17777777 10.623917,8.14814814 L10.623917,8.14814814 Z M10.6829142,8.02962963 C10.6829142,8.05925926 10.6534156,8.05925926 10.6829142,8.02962963 L10.623917,7.97037037 C10.623917,8.02962963 10.6829142,8.02962963 10.6829142,8.02962963 L10.6829142,8.02962963 Z M10.7124128,8.05925926 L10.77141,8.08888888 C10.7419114,8.08888888 10.7419114,8.11851851 10.7419114,8.11851851 C10.7124128,8.08888888 10.7124128,8.05925926 10.7124128,8.05925926 L10.7124128,8.05925926 Z M10.5649198,8.05925926 L11.1843905,8.2962963 C11.3908807,8.2962963 11.4793765,8.23703704 11.4793765,8.17777777 C11.4793765,7.97037037 10.7419114,8.05925926 10.9779002,7.91111112 C11.2433877,7.91111112 11.2433877,7.67407407 11.4498779,7.64444444 C11.2138891,7.61481481 11.1843905,7.79259258 11.0958947,7.82222223 C11.1548919,7.79259258 11.1843905,7.73333333 11.1548919,7.7037037 C11.1253933,7.76296296 10.8599058,7.85185186 10.8599058,7.97037037 C10.8599058,8.17777777 11.4203793,8.02962963 11.4203793,8.20740742 C11.4203793,8.38518519 10.918903,8.23703704 10.77141,8.26666667 C10.77141,8.08888888 10.918903,8.14814814 10.8009086,8.02962963 C10.8009086,8 10.8009086,8 10.7419114,7.97037037 L10.623917,7.97037037 C10.5944184,7.94074074 10.5649198,7.97037037 10.5649198,8 C10.5649198,8 10.5059226,8.05925926 10.5649198,8.05925926 C10.5354212,8.05925926 10.5354212,8.08888888 10.5649198,8.05925926 L10.5649198,8.11851851 C10.5354212,8.17777777 10.5354212,8.23703704 10.5354212,8.23703704 C10.476424,8.17777777 10.4469254,8.20740742 10.476424,8.11851851 C10.476424,8.05925926 10.5059226,8.08888888 10.5059226,8 L10.4469254,8 C10.4174268,8.02962963 10.4469254,8.02962963 10.4469254,8.05925926 C10.4174268,8.11851851 10.476424,8 10.3879282,8 C10.3879282,7.97037037 10.3879282,7.94074074 10.328931,7.97037037 L10.3584296,7.97037037 L10.3584296,8 C10.3584296,8.02962963 10.4174268,8.02962963 10.4174268,8.02962963 C10.4174268,8.05925926 10.3584296,8 10.3584296,8.05925926 C10.3584296,8.08888888 10.328931,8.08888888 10.3584296,8.11851851 L10.3584296,8.08888888 L10.4174268,8.08888888 C10.4469254,8.11851851 10.3584296,8.14814814 10.4469254,8.14814814 C10.4469254,8.20740742 10.3584296,8.17777777 10.3879282,8.14814814 C10.328931,8.20740742 10.3879282,8.23703704 10.4469254,8.20740742 C10.4469254,8.20740742 10.4469254,8.23703704 10.476424,8.23703704 C10.476424,8.23703704 10.476424,8.26666667 10.5059226,8.26666667 C10.5059226,8.20740742 10.5354212,8.2962963 10.5649198,8.32592593 C10.5354212,8.35555556 10.2404352,8.41481481 10.2404352,8.38518519 C10.2404352,8.35555556 10.2404352,8.32592593 10.2109365,8.32592593 C10.0929421,8.2962963 10.1519393,8.32592593 10.181438,8.32592593 C10.1519393,8.35555556 10.1519393,8.35555556 10.2109365,8.38518519 C10.2109365,8.38518519 10.2109365,8.41481481 10.181438,8.38518519 C10.1519393,8.35555556 10.181438,8.35555556 10.1224407,8.35555556 C10.0929421,8.35555556 10.0634435,8.38518519 10.0634435,8.41481481 C10.0634435,8.41481481 10.0634435,8.38518519 10.0929421,8.38518519 C10.1224407,8.41481481 10.1224407,8.44444444 10.181438,8.41481481 C10.1519393,8.47407407 10.1224407,8.44444444 10.181438,8.47407407 C10.1519393,8.5037037 10.181438,8.53333333 10.2109365,8.53333333 C10.2109365,8.53333333 10.181438,8.5037037 10.181438,8.47407407 L10.2109365,8.47407407 C10.2404352,8.47407407 10.2404352,8.38518519 10.2404352,8.41481481 C10.2404352,8.5037037 10.3584296,8.41481481 10.328931,8.41481481 L10.3584296,8.41481481 L10.3584296,8.47407407 L10.4174268,8.41481481 L10.476424,8.41481481 L10.476424,8.44444444 L10.476424,8.41481481 C10.476424,8.41481481 10.476424,8.44444444 10.5059226,8.47407407 C10.5059226,8.38518519 10.6534156,8.38518519 10.5944184,8.41481481 C10.6534156,8.41481481 10.6534156,8.38518519 10.6829142,8.35555556 C10.7124128,8.35555556 10.7419114,8.35555556 10.7419114,8.32592593 L10.7419114,8.35555556 C10.8009086,8.35555556 10.8599058,8.2962963 10.8599058,8.2962963 C10.9779002,8.26666667 10.8009086,8.20740742 11.0073989,8.20740742 C11.0368974,8.20740742 11.0663961,8.20740742 11.0663961,8.17777777 C11.0368974,8.20740742 11.0368974,8.26666667 11.0958947,8.2962963 C11.1253933,8.2962963 11.1548919,8.32592593 11.1548919,8.32592593 L11.0958947,8.32592593 L10.9779002,8.26666667 C10.9484016,8.26666667 10.918903,8.2962963 10.918903,8.32592593 C10.9779002,8.26666667 10.9484016,8.32592593 10.9779002,8.32592593 L11.0073989,8.32592593 C11.0073989,8.35555556 10.9484016,8.32592593 10.9484016,8.38518519 C10.9484016,8.41481481 10.9779002,8.44444444 11.0073989,8.41481481 L11.0073989,8.38518519 C11.0073989,8.2962963 11.0073989,8.5037037 11.0663961,8.44444444 L11.0663961,8.41481481 C11.0663961,8.38518519 11.1253933,8.44444444 11.1253933,8.44444444 L11.1843905,8.38518519 C11.3023849,8.41481481 11.3023849,8.32592593 11.2433877,8.2962963 L11.1548919,8.23703704 C11.1843905,8.23703704 11.2138891,8.26666667 11.2728863,8.26666667 C11.3613821,8.26666667 11.2728863,8.17777777 11.4203793,8.23703704 C11.4498779,8.23703704 11.4498779,8.2962963 11.4203793,8.32592593 C11.4203793,8.35555556 11.3908807,8.32592593 11.3613821,8.32592593 L11.3318835,8.32592593 C11.3023849,8.32592593 11.3023849,8.35555556 11.3023849,8.38518519 L11.3318835,8.35555556 C11.3318835,8.38518519 11.3613821,8.41481481 11.3908807,8.38518519 C11.3613821,8.38518519 11.3318835,8.41481481 11.3613821,8.44444444 L11.3908807,8.5037037 L11.3908807,8.47407407 C11.4498779,8.47407407 11.3908807,8.44444444 11.4203793,8.41481481 C11.4203793,8.47407407 11.4203793,8.47407407 11.4498779,8.47407407 C11.4498779,8.5037037 11.4793765,8.5037037 11.5088751,8.47407407 C11.5088751,8.47407407 11.4793765,8.47407407 11.4793765,8.44444444 C11.5383737,8.38518519 11.4793765,8.41481481 11.4793765,8.35555556 C11.4793765,8.32592593 11.5088751,8.35555556 11.5088751,8.2962963 C11.5088751,8.26666667 11.4793765,8.26666667 11.4793765,8.26666667 L11.4793765,8.20740742 C11.4793765,8.20740742 11.5088751,8.17777777 11.4793765,8.14814814 C11.4793765,8.14814814 11.4203793,8.17777777 11.4203793,8.14814814 C11.3908807,8.35555556 11.1548919,8.2962963 11.1843905,8.2962963 L10.5649198,8.05925926 Z M10.1224407,9.00740742 C10.1519393,8.94814814 10.2109365,8.97777777 10.1519393,8.91851851 C10.181438,8.91851851 10.181438,8.91851851 10.181438,8.88888888 C10.1519393,8.88888888 10.1224407,8.91851851 10.181438,8.85925926 L10.2699338,8.88888888 C10.2994324,8.88888888 10.2994324,8.91851851 10.2699338,8.91851851 C10.2699338,8.91851851 10.2699338,8.88888888 10.2404352,8.88888888 L10.2404352,8.91851851 C10.181438,8.91851851 10.181438,8.91851851 10.2109365,8.94814814 L10.2109365,8.97777777 C10.181438,9.0962963 10.0929421,9.06666667 10.1224407,9.00740742 L10.1224407,9.00740742 Z M10.2109365,8.85925926 C10.2109365,8.88888888 10.181438,8.88888888 10.1519393,8.88888888 L10.1224407,8.82962963 L10.2109365,8.85925926 L10.2109365,8.85925926 Z M10.2404352,8.88888888 C10.2404352,8.88888888 10.2994324,8.91851851 10.328931,8.91851851 L10.2404352,8.94814814 L10.2404352,8.88888888 L10.2404352,8.88888888 Z M9.94544913,9.18518519 C9.91595052,9.15555556 9.94544913,9.15555556 9.94544913,9.18518519 L9.94544913,9.18518519 Z M11.4203793,9.06666667 C11.4203793,8.8 10.5354212,9.12592593 10.5354212,8.91851851 C10.5354212,8.85925926 10.623917,8.85925926 10.7419114,8.85925926 C10.8304072,8.97777777 11.3318835,8.82962963 11.4793765,8.85925926 C11.3023849,8.71111112 11.1548919,8.85925926 10.9779002,8.82962963 C11.0958947,8.82962963 11.1253933,8.8 11.1253933,8.77037037 L10.77141,8.8 C10.6829142,8.85925926 10.5059226,8.74074074 10.5059226,8.91851851 C10.5059226,9.12592593 11.0073989,9.00740742 11.1843905,9.00740742 C11.3613821,9.00740742 11.3908807,9.03703704 11.3908807,9.06666667 C11.3908807,9.18518519 10.4469254,9.06666667 10.328931,9.0962963 C10.3584296,9.06666667 10.3879282,9.00740742 10.3879282,8.94814814 C10.4469254,8.91851851 10.4469254,8.88888888 10.3879282,8.85925926 C10.3879282,8.82962963 10.3584296,8.77037037 10.2994324,8.74074074 C10.2404352,8.71111112 10.181438,8.74074074 10.2109365,8.74074074 L10.181438,8.74074074 C10.1224407,8.68148149 10.1224407,8.74074074 10.1224407,8.8 C10.0929421,8.8 10.0339449,8.85925926 10.0634435,8.88888888 C10.0339449,8.94814814 10.0044463,9.00740742 10.0634435,9.00740742 L10.0634435,9.0962963 C10.0339449,9.0962963 9.97494772,9.06666667 10.0044463,9.06666667 L9.97494772,9.06666667 C9.76845749,8.88888888 9.85695331,8.97777777 9.85695331,8.8 C9.85695331,8.74074074 9.8274547,8.74074074 9.7979561,8.74074074 C9.8274547,8.77037037 9.8274547,8.77037037 9.7979561,8.8 L9.7979561,8.85925926 C9.7979561,8.82962963 9.76845749,8.77037037 9.7389589,8.8 C9.7389589,8.77037037 9.70946029,8.74074074 9.67996169,8.77037037 C9.65046308,8.8 9.67996169,8.82962963 9.70946029,8.82962963 C9.70946029,8.82962963 9.7389589,8.85925926 9.70946029,8.85925926 C9.62096449,8.82962963 9.62096449,8.91851851 9.65046308,8.94814814 L9.65046308,8.91851851 L9.67996169,8.91851851 C9.67996169,8.91851851 9.70946029,8.88888888 9.70946029,8.91851851 C9.70946029,8.91851851 9.7389589,8.91851851 9.70946029,8.94814814 C9.67996169,8.97777777 9.67996169,9.00740742 9.70946029,9.00740742 C9.70946029,9.06666667 9.62096449,9.06666667 9.62096449,9.00740742 C9.56196728,9.06666667 9.65046308,9.12592593 9.70946029,9.0962963 C9.70946029,9.0962963 9.70946029,9.12592593 9.7389589,9.12592593 C9.7389589,9.15555556 9.7389589,9.15555556 9.76845749,9.15555556 L9.85695331,9.21481481 C9.88645192,9.24444444 9.91595052,9.27407407 9.94544913,9.24444444 C9.94544913,9.27407407 9.97494772,9.33333333 9.97494772,9.33333333 L9.8274547,9.33333333 C9.67996169,9.39259258 9.67996169,9.33333333 9.67996169,9.27407407 L9.65046308,9.24444444 L9.62096449,9.24444444 C9.59146587,9.21481481 9.56196728,9.21481481 9.56196728,9.24444444 C9.56196728,9.24444444 9.59146587,9.24444444 9.59146587,9.27407407 L9.59146587,9.3037037 C9.56196728,9.36296296 9.67996169,9.36296296 9.65046308,9.36296296 L9.62096449,9.36296296 C9.59146587,9.33333333 9.59146587,9.3037037 9.56196728,9.33333333 L9.53246867,9.33333333 C9.50297007,9.33333333 9.47347146,9.36296296 9.47347146,9.39259258 C9.47347146,9.39259258 9.47347146,9.36296296 9.50297007,9.36296296 L9.50297007,9.39259258 C9.50297007,9.42222223 9.53246867,9.45185186 9.59146587,9.39259258 C9.56196728,9.42222223 9.53246867,9.45185186 9.56196728,9.45185186 C9.56196728,9.48148149 9.59146587,9.51111112 9.62096449,9.51111112 C9.62096449,9.51111112 9.59146587,9.48148149 9.59146587,9.45185186 L9.65046308,9.39259258 C9.65046308,9.42222223 9.65046308,9.45185186 9.70946029,9.45185186 C9.7389589,9.45185186 9.76845749,9.39259258 9.76845749,9.39259258 L9.7979561,9.39259258 L9.7979561,9.45185186 C9.7979561,9.45185186 9.85695331,9.42222223 9.85695331,9.39259258 L9.88645192,9.42222223 L9.97494772,9.42222223 L9.97494772,9.45185186 L9.97494772,9.42222223 C9.97494772,9.42222223 9.97494772,9.45185186 10.0044463,9.48148149 C10.0044463,9.39259258 10.0634435,9.42222223 10.1224407,9.39259258 C10.1224407,9.39259258 10.1224407,9.42222223 10.0929421,9.42222223 C10.2109365,9.45185186 10.2404352,9.27407407 10.328931,9.3037037 C10.5059226,9.33333333 10.3879282,9.15555556 10.6534156,9.18518519 C10.6829142,9.18518519 10.7124128,9.15555556 10.7124128,9.15555556 C10.6829142,9.18518519 10.6829142,9.27407407 10.7419114,9.27407407 C10.77141,9.27407407 10.8009086,9.27407407 10.8009086,9.3037037 C10.8009086,9.3037037 10.77141,9.3037037 10.7419114,9.33333333 C10.6829142,9.39259258 10.6829142,9.21481481 10.5944184,9.27407407 C10.5649198,9.27407407 10.5354212,9.3037037 10.5354212,9.33333333 C10.5944184,9.27407407 10.5649198,9.33333333 10.5944184,9.33333333 C10.5944184,9.33333333 10.623917,9.3037037 10.623917,9.33333333 C10.623917,9.36296296 10.5354212,9.33333333 10.5649198,9.39259258 C10.5649198,9.42222223 10.5944184,9.45185186 10.623917,9.45185186 L10.623917,9.42222223 C10.623917,9.51111112 10.6534156,9.51111112 10.6829142,9.48148149 C10.6829142,9.48148149 10.6534156,9.48148149 10.6534156,9.45185186 L10.7124128,9.42222223 L10.77141,9.45185186 C10.8009086,9.45185186 10.77141,9.36296296 10.8304072,9.39259258 L10.8599058,9.39259258 C10.8599058,9.36296296 10.8599058,9.3037037 10.8304072,9.3037037 L10.8009086,9.24444444 C10.8894044,9.27407407 11.0073989,9.3037037 11.0663961,9.24444444 C11.1253933,9.21481481 11.1548919,9.24444444 11.1843905,9.24444444 C11.1843905,9.24444444 11.2138891,9.24444444 11.2138891,9.27407407 L11.2138891,9.36296296 C11.2138891,9.39259258 11.1548919,9.36296296 11.1253933,9.36296296 L11.0958947,9.36296296 C11.0663961,9.36296296 11.0368974,9.39259258 11.0368974,9.42222223 L11.0663961,9.39259258 C11.0663961,9.42222223 11.0958947,9.45185186 11.1253933,9.42222223 C11.0958947,9.42222223 11.0663961,9.48148149 11.0958947,9.48148149 L11.1548919,9.48148149 C11.1548919,9.51111112 11.1548919,9.51111112 11.1843905,9.51111112 L11.1843905,9.48148149 L11.2138891,9.48148149 L11.2433877,9.42222223 L11.2433877,9.48148149 L11.2728863,9.48148149 C11.2728863,9.51111112 11.3023849,9.51111112 11.3318835,9.51111112 C11.3318835,9.51111112 11.3023849,9.51111112 11.3023849,9.48148149 L11.3023849,9.45185186 C11.3023849,9.39259258 11.2728863,9.39259258 11.2728863,9.39259258 C11.2728863,9.36296296 11.3318835,9.39259258 11.3318835,9.33333333 C11.3318835,9.33333333 11.3318835,9.3037037 11.3023849,9.3037037 C11.3023849,9.3037037 11.3318835,9.3037037 11.3318835,9.27407407 C11.3023849,9.27407407 11.3023849,9.24444444 11.3023849,9.21481481 C11.3023849,9.21481481 11.3318835,9.18518519 11.3318835,9.15555556 C11.3318835,9.18518519 11.2728863,9.18518519 11.2728863,9.15555556 C11.2728863,9.15555556 11.2728863,9.12592593 11.2433877,9.12592593 C11.1843905,9.12592593 11.1253933,9.12592593 11.0073989,9.0962963 C11.2728863,9.15555556 11.4203793,9.12592593 11.4203793,9.06666667 L11.4203793,9.06666667 Z M9.88645192,9.86666667 L9.91595052,9.80740742 C9.91595052,9.80740742 9.94544913,9.80740742 9.91595052,9.77777777 C9.91595052,9.77777777 9.85695331,9.80740742 9.91595052,9.74814814 C9.94544913,9.71851851 10.0634435,9.80740742 10.0044463,9.80740742 C10.0044463,9.80740742 10.0044463,9.77777777 9.97494772,9.77777777 L9.97494772,9.80740742 C9.91595052,9.77777777 9.94544913,9.83703704 9.94544913,9.86666667 L9.88645192,9.86666667 L9.88645192,9.86666667 Z M9.97494772,9.71851851 C9.97494772,9.74814814 9.94544913,9.74814814 9.91595052,9.71851851 L9.88645192,9.65925926 C9.91595052,9.71851851 9.94544913,9.71851851 9.97494772,9.71851851 L9.97494772,9.71851851 Z M10.0044463,9.71851851 C10.0044463,9.71851851 10.0634435,9.74814814 10.0929421,9.74814814 C10.0339449,9.77777777 10.0044463,9.80740742 10.0044463,9.71851851 L10.0044463,9.71851851 Z M11.3318835,9.8962963 C11.3318835,9.62962963 10.328931,9.98518519 10.328931,9.74814814 C10.328931,9.68888888 10.5354212,9.71851851 10.6534156,9.71851851 C10.7124128,9.83703704 11.2138891,9.65925926 11.3613821,9.71851851 C11.2138891,9.6 11.0663961,9.71851851 10.8894044,9.68888888 C11.0073989,9.68888888 11.1253933,9.65925926 11.1253933,9.62962963 C11.0368974,9.68888888 10.8304072,9.6 10.7124128,9.65925926 C10.5944184,9.71851851 10.328931,9.6 10.328931,9.74814814 C10.328931,9.95555556 10.9779002,9.83703704 11.1548919,9.83703704 C11.3318835,9.83703704 11.3318835,9.86666667 11.3318835,9.8962963 C11.3023849,9.95555556 11.1548919,9.95555556 11.0663961,9.95555556 C10.918903,9.95555556 10.2994324,9.86666667 10.0929421,9.95555556 C10.1224407,9.86666667 10.2404352,9.74814814 10.1224407,9.74814814 L10.0929421,9.68888888 C9.94544913,9.57037037 10.0339449,9.65925926 9.94544913,9.62962963 L9.91595052,9.62962963 L9.88645192,9.6 L9.88645192,9.65925926 C9.85695331,9.65925926 9.8274547,9.71851851 9.8274547,9.71851851 C9.85695331,9.80740742 9.7979561,9.80740742 9.8274547,9.83703704 L9.8274547,9.8962963 L9.7979561,9.8962963 C9.67996169,9.8962963 9.59146587,9.77777777 9.59146587,9.71851851 C9.59146587,9.65925926 9.62096449,9.65925926 9.59146587,9.6 C9.59146587,9.57037037 9.56196728,9.57037037 9.53246867,9.57037037 C9.53246867,9.57037037 9.56196728,9.57037037 9.56196728,9.6 C9.53246867,9.62962963 9.53246867,9.62962963 9.56196728,9.65925926 L9.56196728,9.68888888 C9.56196728,9.71851851 9.56196728,9.62962963 9.50297007,9.62962963 C9.50297007,9.6 9.47347146,9.6 9.44397285,9.62962963 L9.47347146,9.62962963 C9.47347146,9.65925926 9.47347146,9.68888888 9.50297007,9.68888888 L9.50297007,9.71851851 C9.44397285,9.68888888 9.44397285,9.71851851 9.44397285,9.74814814 C9.41447426,9.74814814 9.41447426,9.77777777 9.44397285,9.80740742 L9.44397285,9.77777777 L9.50297007,9.77777777 C9.47347146,9.80740742 9.47347146,9.83703704 9.50297007,9.83703704 C9.50297007,9.8962963 9.41447426,9.86666667 9.44397285,9.83703704 C9.41447426,9.8962963 9.47347146,9.95555556 9.53246867,9.92592593 C9.53246867,9.92592593 9.53246867,9.95555556 9.56196728,9.95555556 C9.56196728,9.95555556 9.59146587,9.92592593 9.59146587,9.95555556 C9.59146587,9.98518519 9.59146587,9.98518519 9.62096449,9.98518519 L9.62096449,9.95555556 C9.62096449,9.95555556 9.67996169,10.0444444 9.7389589,10.0740741 C9.76845749,10.0740741 9.76845749,10.0740741 9.7979561,10.0444444 C9.7979561,10.0444444 9.85695331,10.1333333 9.8274547,10.1333333 L9.67996169,10.1333333 C9.65046308,10.162963 9.56196728,10.1925926 9.53246867,10.1333333 C9.50297007,10.1037037 9.53246867,10.0740741 9.47347146,10.0740741 C9.35547705,10.0444444 9.41447426,10.0740741 9.41447426,10.1037037 L9.41447426,10.1333333 C9.38497565,10.1925926 9.50297007,10.1925926 9.47347146,10.1925926 C9.38497565,10.1925926 9.38497565,10.1333333 9.35547705,10.1333333 L9.32597844,10.1333333 C9.29647985,10.1333333 9.26698123,10.162963 9.26698123,10.1925926 C9.26698123,10.1925926 9.26698123,10.162963 9.29647985,10.162963 C9.32597844,10.1925926 9.29647985,10.2518519 9.38497565,10.1925926 C9.41447426,10.162963 9.32597844,10.2518519 9.35547705,10.2518519 L9.35547705,10.2814815 C9.35547705,10.3111111 9.38497565,10.3407407 9.41447426,10.3407407 C9.41447426,10.3407407 9.38497565,10.3111111 9.38497565,10.2814815 C9.44397285,10.3111111 9.41447426,10.2518519 9.44397285,10.2222222 C9.44397285,10.3111111 9.56196728,10.2518519 9.53246867,10.2222222 L9.56196728,10.2222222 L9.56196728,10.2814815 L9.62096449,10.2518519 L9.70946029,10.2518519 C9.70946029,10.3111111 9.70946029,10.2814815 9.7389589,10.2814815 C9.7389589,10.2814815 9.7389589,10.3111111 9.76845749,10.3407407 C9.76845749,10.2518519 9.88645192,10.3111111 9.94544913,10.2518519 C9.97494772,10.2518519 9.94544913,10.2814815 9.91595052,10.2814815 C9.94544913,10.2814815 9.97494772,10.2814815 9.97494772,10.2518519 L10.0634435,10.2222222 C10.0634435,10.1925926 10.0634435,10.1925926 10.0929421,10.1925926 C10.0634435,10.2222222 10.1519393,10.162963 10.1519393,10.162963 C10.4469254,10.1925926 10.2994324,10.0148148 10.623917,10.0740741 C10.6534156,10.0740741 10.6534156,10.0740741 10.6534156,10.0444444 C10.623917,10.0740741 10.623917,10.1333333 10.6829142,10.1333333 C10.7419114,10.1333333 10.7419114,10.162963 10.7419114,10.162963 L10.6829142,10.162963 L10.5649198,10.1037037 C10.5354212,10.1037037 10.476424,10.1333333 10.5059226,10.162963 C10.5354212,10.1037037 10.5354212,10.162963 10.5354212,10.162963 C10.5354212,10.1925926 10.5649198,10.162963 10.5944184,10.162963 C10.5944184,10.1925926 10.5059226,10.162963 10.5354212,10.2222222 C10.5354212,10.2518519 10.5649198,10.2814815 10.5944184,10.2814815 C10.5944184,10.2814815 10.5649198,10.2814815 10.5649198,10.2518519 L10.5944184,10.2518519 L10.5944184,10.2814815 C10.5944184,10.3407407 10.623917,10.3407407 10.6534156,10.3407407 C10.5944184,10.3407407 10.623917,10.3111111 10.623917,10.3111111 L10.623917,10.2814815 L10.6534156,10.2814815 C10.6534156,10.3111111 10.6829142,10.3111111 10.7124128,10.3111111 L10.7419114,10.2518519 C10.77141,10.2518519 10.8304072,10.2814815 10.8599058,10.2518519 C10.8599058,10.2222222 10.8599058,10.1925926 10.8304072,10.162963 L10.8009086,10.1037037 C10.8894044,10.1333333 10.9779002,10.162963 11.0663961,10.1037037 C11.0958947,10.0740741 11.1843905,10.0740741 11.1843905,10.1037037 C11.1548919,10.1925926 11.2138891,10.1925926 11.0958947,10.162963 C11.0663961,10.162963 11.0073989,10.1925926 11.0073989,10.2222222 L11.0368974,10.1925926 C11.0368974,10.2222222 11.0663961,10.2518519 11.0958947,10.2222222 C11.1253933,10.1925926 11.0368974,10.2814815 11.0663961,10.2814815 L11.1253933,10.3407407 L11.1253933,10.3111111 L11.1843905,10.2518519 C11.2138891,10.2222222 11.1548919,10.3111111 11.1843905,10.3111111 C11.2138891,10.3111111 11.2138891,10.3703704 11.2433877,10.3407407 C11.2433877,10.3407407 11.2138891,10.3407407 11.2138891,10.3111111 L11.2138891,10.2814815 C11.2138891,10.2222222 11.1843905,10.2222222 11.1843905,10.2222222 C11.1843905,10.1925926 11.2433877,10.2222222 11.2433877,10.162963 C11.2433877,10.1333333 11.2138891,10.1333333 11.2138891,10.1333333 C11.3023849,10.1333333 11.1843905,10.0740741 11.2138891,10.0740741 C11.2138891,10.0740741 11.2433877,10.0444444 11.2433877,10.0148148 C11.2433877,10.0444444 11.1843905,10.0444444 11.1843905,10.0148148 C11.1843905,10.0148148 11.1843905,9.98518519 11.1548919,9.98518519 C11.0958947,9.98518519 11.0663961,9.98518519 10.9484016,9.95555556 C11.1843905,9.98518519 11.3318835,9.95555556 11.3318835,9.8962963 L11.3318835,9.8962963 Z M12.482329,10.9333333 L12.482329,11.0222222 L12.482329,10.9333333 Z M12.5118276,11.0222222 C12.5413262,10.9925926 12.5413262,10.9925926 12.5708248,10.9925926 C12.5708248,10.9925926 12.5708248,10.962963 12.5413262,10.962963 C12.5413262,10.962963 12.5708248,10.962963 12.5413262,10.9333333 L12.5118276,10.9333333 L12.5118276,10.9037037 L12.5413262,10.9037037 L12.6003234,10.9333333 L12.6003234,10.9925926 C12.6003234,10.9925926 12.6003234,10.962963 12.5708248,10.962963 L12.5708248,10.9925926 L12.5118276,11.0222222 L12.5118276,11.0814815 L12.5118276,11.0222222 L12.5118276,11.0222222 Z M12.6003234,10.8444444 C12.6003234,10.8740741 12.5708248,10.8740741 12.5413262,10.8740741 L12.5118276,10.8148148 C12.5413262,10.8148148 12.6003234,10.8444444 12.6003234,10.8444444 L12.6003234,10.8444444 Z M12.629822,10.8740741 C12.629822,10.8740741 12.6888192,10.9037037 12.7183179,10.9037037 L12.6593206,10.9333333 C12.6593206,10.9333333 12.629822,10.9037037 12.629822,10.8740741 L12.629822,10.8740741 Z M13.9867578,11.2296296 C13.9867578,11.2296296 14.0162564,11.2 14.0162564,11.1703704 C14.0162564,11.2 13.9572592,11.2 13.9572592,11.1703704 C13.9572592,11.1703704 13.9572592,11.1407407 13.9277606,11.1407407 C13.8687634,11.1407407 13.8097662,11.1407407 13.6917718,11.1111111 C14.1342508,11.0814815 14.0162564,10.9037037 13.750769,10.9037037 C13.5442788,10.9037037 12.9838053,10.962963 12.9838053,10.8740741 C12.9838053,10.8148148 13.1902955,10.8444444 13.3082899,10.8444444 L13.3377885,10.8740741 C13.5737774,10.9333333 13.8392648,10.7555556 13.9867578,10.8148148 C13.7802676,10.7555556 13.6917718,10.8740741 13.5147801,10.8148148 C13.6327746,10.8148148 13.750769,10.7851852 13.750769,10.7555556 C13.6622732,10.8148148 13.4557829,10.7259259 13.3377885,10.7851852 L13.3082899,10.7851852 C13.1312983,10.7851852 12.9248081,10.7555556 12.9248081,10.8740741 C12.9248081,11.0814815 13.5737774,10.962963 13.7212704,10.962963 C13.898262,10.962963 13.9277606,10.9925926 13.9277606,11.0222222 C13.9277606,11.0814815 13.7802676,11.0814815 13.6622732,11.0814815 C13.5147801,11.0814815 12.8953095,10.9925926 12.6888192,11.0814815 C12.6888192,11.0518519 12.7773151,10.962963 12.7478165,10.9333333 C12.7773151,10.9333333 12.7773151,10.9037037 12.7773151,10.8740741 C12.7773151,10.8740741 12.7478165,10.8444444 12.7183179,10.8444444 L12.7183179,10.7851852 C12.7183179,10.7851852 12.6888192,10.7555556 12.6593206,10.7555556 C12.629822,10.7555556 12.6003234,10.7555556 12.6003234,10.7259259 L12.5708248,10.7259259 C12.5708248,10.7259259 12.5413262,10.7259259 12.5413262,10.7555556 C12.5413262,10.7555556 12.5118276,10.7259259 12.482329,10.7259259 L12.482329,10.7851852 C12.4528304,10.7851852 12.4233318,10.8444444 12.4233318,10.8444444 C12.4233318,10.8740741 12.4528304,10.8740741 12.4528304,10.8740741 C12.4233318,10.9037037 12.4233318,10.962963 12.3938332,10.962963 C12.3938332,10.9925926 12.4233318,10.9925926 12.4233318,10.9925926 L12.4233318,11.0518519 L12.334836,11.0518519 L12.2168416,10.962963 C12.1578444,10.9037037 12.2168416,10.8740741 12.2168416,10.7851852 C12.2168416,10.7259259 12.187343,10.7259259 12.1578444,10.7259259 C12.1578444,10.7259259 12.187343,10.7259259 12.187343,10.7555556 C12.187343,10.7555556 12.187343,10.7851852 12.1578444,10.7851852 L12.1578444,10.8444444 C12.1283458,10.7851852 12.1283458,10.7851852 12.0988472,10.7851852 C12.0988472,10.7555556 12.0693486,10.7259259 12.03985,10.7555556 L12.0693486,10.7555556 L12.0693486,10.7851852 C12.0693486,10.8148148 12.1283458,10.8148148 12.1283458,10.8148148 C12.0693486,10.7851852 12.0693486,10.8148148 12.0693486,10.8444444 C12.03985,10.8444444 12.03985,10.8740741 12.0693486,10.9037037 L12.0693486,10.8740741 L12.1283458,10.8740741 C12.1283458,10.8740741 12.1578444,10.8740741 12.1283458,10.9037037 C12.0988472,10.9333333 12.0988472,10.962963 12.1283458,10.962963 C12.1283458,11.0222222 12.03985,10.9925926 12.0693486,10.962963 C12.03985,11.0222222 12.0988472,11.0814815 12.1578444,11.0518519 C12.1578444,11.0518519 12.1578444,11.0814815 12.187343,11.0814815 C12.187343,11.0814815 12.187343,11.1111111 12.2168416,11.1111111 L12.2168416,11.0814815 C12.2168416,11.0814815 12.2758388,11.1703704 12.334836,11.2 C12.334836,11.2 12.3643346,11.1703704 12.3938332,11.1703704 C12.3938332,11.2 12.3938332,11.2 12.4233318,11.2 C12.4233318,11.2296296 12.4528304,11.2888889 12.4528304,11.2888889 L12.334836,11.2888889 C12.3053374,11.3185185 12.2168416,11.3481481 12.187343,11.3185185 C12.187343,11.2888889 12.187343,11.2888889 12.1578444,11.2592593 L12.1283458,11.2296296 L12.0988472,11.2296296 C12.0988472,11.2296296 12.03985,11.2 12.03985,11.2296296 C12.03985,11.2296296 12.0693486,11.2296296 12.0693486,11.2592593 L12.0693486,11.2888889 C12.0693486,11.2888889 12.0693486,11.3185185 12.1283458,11.3481481 L12.0988472,11.3481481 C12.0693486,11.3185185 12.0693486,11.3185185 12.03985,11.3185185 L12.0103514,11.3185185 C11.9808528,11.3185185 11.9513542,11.3481481 11.9513542,11.3777778 C11.9513542,11.3777778 11.9513542,11.3481481 11.9808528,11.3481481 L11.9808528,11.3777778 C11.9808528,11.4074074 12.0103514,11.437037 12.0693486,11.3777778 L12.03985,11.4074074 C12.03985,11.437037 12.0693486,11.4666667 12.0988472,11.4666667 C12.0988472,11.4666667 12.0693486,11.437037 12.0693486,11.4074074 L12.0988472,11.4074074 C12.1283458,11.4074074 12.1283458,11.3481481 12.1283458,11.3481481 C12.1283458,11.3481481 12.1283458,11.4074074 12.1578444,11.3777778 C12.187343,11.3777778 12.2168416,11.3481481 12.187343,11.3185185 L12.2168416,11.3481481 C12.2168416,11.3481481 12.2463402,11.3481481 12.2463402,11.3185185 L12.2463402,11.3777778 C12.2463402,11.3777778 12.3053374,11.3481481 12.3053374,11.3185185 L12.3053374,11.3481481 L12.3643346,11.3481481 L12.3643346,11.3777778 L12.3643346,11.3481481 C12.3643346,11.3481481 12.3643346,11.3777778 12.3938332,11.4074074 C12.3938332,11.3185185 12.4528304,11.3481481 12.5118276,11.3185185 C12.5118276,11.3185185 12.5118276,11.3481481 12.482329,11.3481481 C12.5118276,11.3777778 12.5708248,11.3185185 12.5708248,11.2888889 C12.5708248,11.2888889 12.6003234,11.2888889 12.629822,11.2592593 C12.6888192,11.2592593 12.6888192,11.2296296 12.6888192,11.2296296 C12.9838053,11.2592593 12.8363123,11.0814815 13.1607969,11.1407407 C13.1902955,11.1407407 13.1902955,11.1111111 13.1902955,11.1111111 C13.1607969,11.1407407 13.1607969,11.2296296 13.2197941,11.2296296 C13.2492927,11.2296296 13.2787913,11.2296296 13.2787913,11.2592593 L13.2197941,11.2592593 L13.1017997,11.2 L13.0723011,11.2 C13.0428025,11.2 13.0133039,11.2296296 13.0133039,11.2592593 L13.0428025,11.2296296 C13.0428025,11.2296296 13.0428025,11.2592593 13.0723011,11.2592593 L13.1017997,11.2592593 C13.1017997,11.2888889 13.0133039,11.2592593 13.0428025,11.3185185 L13.0428025,11.3481481 C13.0428025,11.3777778 13.0428025,11.3777778 13.1017997,11.3777778 C13.1017997,11.3777778 13.0723011,11.3777778 13.0723011,11.3481481 L13.0723011,11.3777778 C13.0723011,11.4074074 13.1017997,11.437037 13.1312983,11.4074074 C13.1312983,11.4074074 13.1017997,11.4074074 13.1017997,11.3777778 L13.1312983,11.3777778 L13.1312983,11.3481481 L13.1607969,11.3481481 C13.1607969,11.3481481 13.1902955,11.3777778 13.2197941,11.3777778 L13.2492927,11.3185185 L13.3672871,11.3185185 C13.3672871,11.2888889 13.3672871,11.2592593 13.3377885,11.2296296 L13.3082899,11.1703704 C13.3377885,11.2 13.3672871,11.2 13.4262843,11.2 C13.5147801,11.2 13.5442788,11.2 13.5737774,11.1703704 C13.6327746,11.1407407 13.6622732,11.1703704 13.6917718,11.1703704 C13.6917718,11.1703704 13.7212704,11.1703704 13.6917718,11.2 L13.6917718,11.2592593 C13.6917718,11.2888889 13.6327746,11.2592593 13.6327746,11.2592593 L13.603276,11.2592593 C13.5147801,11.2888889 13.5147801,11.3185185 13.5147801,11.3481481 L13.5147801,11.3185185 C13.5147801,11.3481481 13.5442788,11.3481481 13.5737774,11.3481481 C13.5442788,11.3481481 13.5147801,11.3777778 13.5442788,11.4074074 C13.5442788,11.437037 13.5442788,11.437037 13.5737774,11.437037 L13.5737774,11.4074074 L13.603276,11.4074074 L13.6327746,11.3481481 C13.6327746,11.3777778 13.603276,11.4074074 13.6327746,11.4074074 C13.6622732,11.437037 13.6622732,11.437037 13.6917718,11.437037 C13.6917718,11.437037 13.6622732,11.437037 13.6622732,11.4074074 L13.6917718,11.3777778 C13.7212704,11.3185185 13.6622732,11.3185185 13.6622732,11.3185185 C13.6622732,11.2888889 13.7212704,11.3185185 13.7212704,11.2592593 C13.7212704,11.2296296 13.6917718,11.2296296 13.6917718,11.2296296 L13.7212704,11.2296296 C13.9572592,11.2888889 13.9867578,11.2592593 13.9867578,11.2296296 L13.9867578,11.2296296 Z M12.629822,11.8518519 C12.6003234,11.8518519 12.6003234,11.8222222 12.6003234,11.7925926 L12.629822,11.8518519 C12.6593206,11.8222222 12.6593206,11.8518519 12.629822,11.8518519 L12.629822,11.8518519 Z M12.6003234,11.8814815 C12.5708248,11.8518519 12.5708248,11.8814815 12.6003234,11.8814815 L12.5413262,11.8814815 L12.5413262,11.9407407 L12.5118276,11.9703704 C12.482329,11.9703704 12.482329,11.9407407 12.5118276,11.9111111 C12.5118276,11.9111111 12.5118276,11.8814815 12.5413262,11.8814815 L12.6003234,11.8814815 C12.5708248,11.8518519 12.5708248,11.8518519 12.5413262,11.8518519 C12.5413262,11.8518519 12.5708248,11.8518519 12.5413262,11.8222222 L12.5118276,11.8222222 L12.5118276,11.7925926 L12.5413262,11.7925926 L12.6003234,11.8222222 L12.6003234,11.8814815 L12.6003234,11.8814815 Z M12.5708248,11.762963 C12.5708248,11.7925926 12.5413262,11.7925926 12.5118276,11.762963 C12.5118276,11.7333333 12.5118276,11.7333333 12.482329,11.7037037 C12.5118276,11.762963 12.5708248,11.762963 12.5708248,11.762963 L12.5708248,11.762963 Z M13.1312983,11.7925926 C13.3967857,11.8814815 13.6327746,11.7037037 13.7802676,11.762963 L13.3377885,11.762963 C13.4557829,11.762963 13.5442788,11.7333333 13.5737774,11.7037037 L13.1902955,11.7333333 C13.0723011,11.7333333 12.9543067,11.7333333 12.9543067,11.8222222 C12.9543067,12 13.4262843,11.9111111 13.5737774,11.9111111 C13.7212704,11.9111111 13.7212704,11.9407407 13.7212704,11.9703704 C13.7212704,12 13.5442788,12.0296296 13.4557829,12.0296296 C13.3082899,12.0296296 12.9543067,11.9703704 12.6888192,12 C12.7183179,11.9703704 12.7478165,11.9111111 12.7183179,11.8814815 C12.7478165,11.8814815 12.7478165,11.8518519 12.7478165,11.8222222 C12.7478165,11.8222222 12.7183179,11.7925926 12.6888192,11.7925926 L12.6888192,11.7333333 C12.6888192,11.7333333 12.6593206,11.7037037 12.629822,11.7037037 C12.6003234,11.7037037 12.6003234,11.7037037 12.5708248,11.6740741 L12.5118276,11.6740741 L12.482329,11.6444444 L12.482329,11.7037037 L12.4233318,11.762963 C12.4233318,11.7925926 12.4233318,11.7925926 12.4528304,11.7925926 L12.3938332,11.8814815 C12.3938332,11.8814815 12.3938332,11.9111111 12.4233318,11.9111111 L12.4233318,11.9703704 L12.3938332,11.9703704 C12.3643346,11.9703704 12.334836,11.9703704 12.3053374,11.9407407 C12.2758388,11.9111111 12.2758388,11.9111111 12.2758388,11.8518519 C12.2758388,11.8222222 12.3053374,11.7925926 12.2758388,11.762963 L12.2758388,11.7333333 C12.2758388,11.7037037 12.2463402,11.7037037 12.2168416,11.7037037 C12.2168416,11.7037037 12.2463402,11.7037037 12.2463402,11.7333333 L12.2463402,11.7925926 C12.2463402,11.762963 12.2168416,11.7333333 12.2168416,11.7333333 C12.2168416,11.7037037 12.187343,11.7037037 12.1578444,11.7037037 L12.187343,11.7037037 L12.187343,11.7333333 C12.187343,11.762963 12.2168416,11.762963 12.2168416,11.762963 C12.187343,11.7333333 12.1578444,11.762963 12.1578444,11.7925926 L12.1578444,11.8222222 C12.1283458,11.8222222 12.1283458,11.8518519 12.1578444,11.8814815 L12.1578444,11.8518519 L12.187343,11.8518519 C12.1578444,11.8814815 12.1578444,11.9111111 12.187343,11.9111111 C12.187343,11.9703704 12.1283458,11.9407407 12.1283458,11.9111111 C12.0988472,11.9703704 12.1578444,12.0296296 12.2168416,12 C12.2168416,12 12.2168416,12.0296296 12.2463402,12.0296296 C12.2463402,12.0296296 12.2463402,12.0592593 12.2758388,12.0592593 L12.2758388,12.0296296 C12.2758388,12.0296296 12.2758388,12 12.334836,12.0296296 C12.334836,12.0296296 12.334836,12.0592593 12.3643346,12.0592593 L12.4233318,12.0592593 L12.4233318,12.1481481 L12.334836,12.1481481 C12.3053374,12.1777778 12.2168416,12.2074074 12.187343,12.1481481 C12.187343,12.1481481 12.187343,12.1185185 12.1578444,12.1185185 L12.1283458,12.0888889 L12.0988472,12.0888889 C12.0988472,12.0592593 12.03985,12.0592593 12.03985,12.0888889 C12.03985,12.0888889 12.0693486,12.0888889 12.0693486,12.1185185 L12.0693486,12.1481481 C12.0693486,12.1481481 12.0693486,12.1777778 12.1283458,12.2074074 L12.0988472,12.2074074 C12.0693486,12.1777778 12.0693486,12.1777778 12.03985,12.1777778 L12.0103514,12.1777778 C11.9808528,12.1777778 11.9513542,12.2074074 11.9808528,12.237037 C11.9808528,12.237037 11.9808528,12.2074074 12.0103514,12.2074074 C12.0103514,12.237037 12.03985,12.2666667 12.0693486,12.2074074 L12.03985,12.2666667 C12.03985,12.2962963 12.0693486,12.3259259 12.0988472,12.3259259 C12.0988472,12.3259259 12.0693486,12.2962963 12.0693486,12.2666667 L12.0988472,12.2666667 L12.1283458,12.2074074 C12.1283458,12.2074074 12.1283458,12.237037 12.1578444,12.237037 C12.187343,12.237037 12.2168416,12.2074074 12.187343,12.1777778 L12.2168416,12.2074074 C12.2168416,12.2074074 12.2463402,12.2074074 12.2463402,12.1777778 L12.2463402,12.237037 C12.2463402,12.237037 12.3053374,12.2074074 12.3053374,12.1777778 L12.3053374,12.2074074 L12.3643346,12.2074074 L12.3643346,12.237037 L12.3643346,12.2074074 C12.3643346,12.2074074 12.3643346,12.237037 12.3938332,12.2666667 C12.3938332,12.1777778 12.4528304,12.2074074 12.5118276,12.1777778 C12.5118276,12.1777778 12.5118276,12.2074074 12.482329,12.2074074 C12.5413262,12.237037 12.6003234,12.1777778 12.6003234,12.1185185 L12.6003234,12.0888889 L12.6003234,12.1185185 C12.6593206,12.1185185 12.6593206,12.0888889 12.6593206,12.0888889 C12.8068137,12.0888889 12.6888192,11.9407407 12.9248081,12 C12.9543067,12 12.9838053,12 12.9838053,11.9703704 C12.9543067,12 12.9543067,12.0888889 13.0133039,12.0888889 C13.0428025,12.0888889 13.0723011,12.0888889 13.0723011,12.1185185 L13.0133039,12.1185185 L12.8953095,12.0592593 L12.8658109,12.0592593 C12.8363123,12.0592593 12.8068137,12.0888889 12.8068137,12.1185185 L12.8363123,12.0888889 C12.8363123,12.0888889 12.8363123,12.1185185 12.8658109,12.1185185 L12.8953095,12.1185185 C12.8953095,12.1481481 12.8363123,12.1185185 12.8363123,12.1777778 L12.8363123,12.2074074 C12.8363123,12.237037 12.8363123,12.237037 12.8953095,12.237037 C12.8953095,12.237037 12.8658109,12.237037 12.8658109,12.2074074 L12.8658109,12.237037 C12.8658109,12.2666667 12.8953095,12.2962963 12.9248081,12.2666667 C12.9248081,12.2666667 12.8953095,12.2666667 12.8953095,12.237037 L12.9248081,12.237037 L12.9248081,12.2074074 C12.9248081,12.237037 12.9543067,12.237037 12.9838053,12.237037 L13.0133039,12.1777778 L13.1312983,12.1777778 C13.1312983,12.1481481 13.1312983,12.1185185 13.1017997,12.0888889 L13.0723011,12.0296296 C13.1017997,12.0592593 13.1312983,12.0592593 13.1902955,12.0592593 C13.2787913,12.0592593 13.3082899,12.0592593 13.3672871,12.0296296 L13.4852815,12.0296296 C13.4852815,12.0296296 13.5147801,12.0296296 13.4852815,12.0592593 L13.4557829,12.1185185 C13.4557829,12.1481481 13.3967857,12.1185185 13.3967857,12.1185185 L13.3672871,12.1185185 C13.3377885,12.1185185 13.3082899,12.1481481 13.3082899,12.1777778 L13.3377885,12.1481481 C13.3377885,12.1777778 13.3672871,12.1777778 13.3967857,12.1777778 C13.3672871,12.1777778 13.3377885,12.2074074 13.3672871,12.237037 L13.3967857,12.2962963 L13.3967857,12.2666667 L13.4262843,12.2666667 C13.4557829,12.2666667 13.4557829,12.237037 13.4557829,12.2074074 C13.4262843,12.2666667 13.4557829,12.2666667 13.4557829,12.2666667 C13.4557829,12.2962963 13.4852815,12.2962963 13.5147801,12.2962963 C13.5147801,12.2962963 13.4852815,12.2962963 13.4852815,12.2666667 L13.5147801,12.237037 C13.5442788,12.1777778 13.5147801,12.1777778 13.5147801,12.1777778 C13.5147801,12.1481481 13.5737774,12.1777778 13.5737774,12.1185185 L13.5737774,12.0888889 C13.5737774,12.0888889 13.603276,12.0888889 13.603276,12.0592593 C13.5737774,12.0592593 13.5737774,12.0296296 13.5737774,12.0296296 C13.5737774,12.0296296 13.603276,12 13.603276,11.9703704 C13.603276,12 13.5442788,12 13.5442788,11.9703704 C13.5442788,11.9703704 13.5442788,11.9407407 13.5147801,11.9407407 C13.4557829,11.9407407 13.3672871,11.9407407 13.2787913,11.9111111 C13.3967857,11.9111111 13.5737774,11.8814815 13.5737774,11.8222222 C13.5737774,11.762963 13.5737774,11.7333333 13.3672871,11.7333333 C13.1902955,11.7333333 12.8068137,11.7925926 12.8068137,11.7037037 C12.9838053,11.7925926 13.0428025,11.7925926 13.1312983,11.7925926 L13.1312983,11.7925926 Z M12.4233318,12.7407407 C12.4528304,12.7111111 12.4528304,12.6814815 12.4233318,12.6814815 C12.4233318,12.6814815 12.4528304,12.6814815 12.4233318,12.6518519 L12.3938332,12.6518519 L12.3938332,12.6222222 L12.4233318,12.6222222 L12.482329,12.6518519 L12.482329,12.7407407 L12.482329,12.7111111 L12.4233318,12.7407407 L12.4233318,12.8 L12.4233318,12.7407407 L12.4233318,12.7407407 Z M12.482329,12.5925926 C12.482329,12.5925926 12.4528304,12.6222222 12.4233318,12.5925926 C12.4233318,12.5925926 12.4233318,12.562963 12.3938332,12.5333333 C12.4528304,12.562963 12.482329,12.5925926 12.482329,12.5925926 L12.482329,12.5925926 Z M12.5413262,12.6222222 L12.6003234,12.6518519 C12.5708248,12.6518519 12.5708248,12.6814815 12.5708248,12.6814815 C12.5413262,12.6518519 12.5118276,12.6222222 12.5413262,12.6222222 L12.5413262,12.6222222 Z M12.9838053,12.5925926 C13.2492927,12.6814815 13.4852815,12.5037037 13.6327746,12.562963 L13.1902955,12.562963 C13.3082899,12.562963 13.3967857,12.5333333 13.4262843,12.5037037 L13.0428025,12.5333333 L12.9838053,12.5925926 C12.9248081,12.5925926 12.8363123,12.6222222 12.8363123,12.6814815 C12.8363123,12.8296296 13.4262843,12.7111111 13.4262843,12.7703704 C13.4262843,12.9185185 12.7183179,12.8 12.6003234,12.8296296 C12.629822,12.7703704 12.6888192,12.7111111 12.6593206,12.6814815 C12.6888192,12.6814815 12.6888192,12.6518519 12.6888192,12.6518519 L12.629822,12.6222222 L12.629822,12.562963 C12.629822,12.562963 12.6003234,12.5333333 12.5708248,12.5333333 C12.5413262,12.5333333 12.5413262,12.5333333 12.5118276,12.5037037 L12.4528304,12.5037037 L12.4233318,12.4740741 L12.4233318,12.5333333 L12.3643346,12.5925926 C12.3643346,12.6222222 12.3643346,12.6222222 12.3938332,12.6222222 C12.3643346,12.6518519 12.3643346,12.6814815 12.334836,12.6814815 L12.3643346,12.7111111 C12.3643346,12.7703704 12.334836,12.8296296 12.3643346,12.8592593 L12.2463402,12.7111111 C12.2168416,12.6814815 12.2168416,12.6814815 12.2168416,12.6518519 L12.2168416,12.5333333 C12.2168416,12.5037037 12.187343,12.5037037 12.1578444,12.5037037 C12.1578444,12.5037037 12.187343,12.5037037 12.187343,12.5333333 L12.187343,12.5925926 C12.187343,12.562963 12.1578444,12.5333333 12.1578444,12.5333333 C12.1578444,12.5037037 12.1283458,12.5037037 12.0988472,12.5333333 L12.1283458,12.5333333 L12.1283458,12.562963 C12.1283458,12.5925926 12.1578444,12.5925926 12.1578444,12.5925926 C12.1283458,12.562963 12.0988472,12.5925926 12.0988472,12.6222222 L12.0988472,12.6518519 C12.0988472,12.6518519 12.0693486,12.6814815 12.0988472,12.7111111 L12.0988472,12.6814815 L12.1283458,12.6814815 C12.0988472,12.7111111 12.0988472,12.7407407 12.1283458,12.7407407 C12.1283458,12.8 12.0693486,12.7703704 12.0693486,12.7407407 C12.03985,12.8 12.0988472,12.8296296 12.1578444,12.8 C12.1578444,12.8 12.1578444,12.8296296 12.187343,12.8296296 C12.187343,12.8296296 12.187343,12.8592593 12.2168416,12.8592593 L12.2168416,12.8296296 C12.2168416,12.8296296 12.2168416,12.9185185 12.2758388,12.9481481 C12.2758388,12.9777778 12.334836,13.0074074 12.3643346,13.0074074 C12.3643346,13.037037 12.3938332,13.0666667 12.3938332,13.0666667 L12.2758388,13.0666667 L12.187343,13.0962963 L12.1283458,13.0962963 C12.1283458,13.0962963 12.1283458,13.0666667 12.0988472,13.0666667 L12.0693486,13.037037 L12.03985,13.037037 C12.03985,13.037037 12.0103514,13.0074074 11.9808528,13.037037 C11.9808528,13.037037 12.0103514,13.037037 12.0103514,13.0666667 L12.0103514,13.0962963 C12.0103514,13.0962963 12.0103514,13.1259259 12.0693486,13.1555556 L12.03985,13.1555556 C12.03985,13.0962963 12.03985,13.0962963 12.0103514,13.0962963 L11.9808528,13.0962963 C11.9513542,13.0962963 11.9218556,13.1259259 11.9513542,13.1555556 C11.9513542,13.1555556 11.9513542,13.1259259 11.9808528,13.1259259 L11.9808528,13.1555556 C11.9808528,13.1851852 12.0103514,13.2148148 12.03985,13.1555556 C12.03985,13.1851852 11.9808528,13.1851852 12.0103514,13.2148148 C12.0103514,13.2444444 12.03985,13.2740741 12.0693486,13.2740741 C12.0693486,13.2740741 12.03985,13.2444444 12.03985,13.2148148 L12.0693486,13.2148148 L12.0988472,13.1555556 C12.0988472,13.1555556 12.0988472,13.1851852 12.1283458,13.1851852 L12.1578444,13.1555556 L12.187343,13.1851852 C12.187343,13.1851852 12.2168416,13.1851852 12.2168416,13.1555556 L12.2168416,13.2148148 L12.2758388,13.1555556 L12.2758388,13.1851852 L12.334836,13.1851852 L12.334836,13.2148148 L12.334836,13.1851852 C12.334836,13.1851852 12.334836,13.2148148 12.3643346,13.2444444 C12.3643346,13.1555556 12.4233318,13.1851852 12.4528304,13.1555556 C12.4528304,13.1555556 12.4528304,13.1851852 12.4233318,13.1851852 C12.4528304,13.1851852 12.482329,13.1555556 12.482329,13.1259259 C12.482329,13.1259259 12.5118276,13.0962963 12.5413262,12.9777778 L12.5708248,12.9777778 L12.7183179,12.9185185 C12.6888192,12.9481481 12.6888192,12.9777778 12.6888192,13.0074074 L12.7478165,13.0962963 L12.6888192,13.0962963 L12.5708248,13.037037 L12.5413262,13.037037 C12.5118276,13.037037 12.482329,13.0666667 12.482329,13.0962963 L12.5118276,13.0666667 C12.5118276,13.0666667 12.5118276,13.0962963 12.5413262,13.0962963 L12.5708248,13.0962963 C12.5708248,13.1259259 12.5118276,13.0962963 12.5118276,13.1555556 L12.5118276,13.1851852 C12.5118276,13.2148148 12.5118276,13.2148148 12.5413262,13.2148148 C12.5413262,13.2148148 12.5118276,13.2148148 12.5413262,13.1851852 L12.5413262,13.2148148 C12.5413262,13.2444444 12.5708248,13.2444444 12.6003234,13.2444444 L12.5708248,13.2444444 L12.6003234,13.2444444 L12.6003234,13.2148148 L12.629822,13.2444444 L12.6593206,13.1851852 L12.7478165,13.1851852 C12.7478165,13.1851852 12.7478165,13.1259259 12.7183179,13.0962963 C12.6888192,13.0962963 12.7478165,12.9777778 12.6593206,12.9185185 C12.6888192,12.9185185 12.8363123,12.9481481 12.8658109,12.9185185 C12.8953095,12.9185185 12.9543067,12.9481481 12.9543067,12.9777778 L12.9543067,13.0074074 C12.9248081,13.037037 12.9248081,13.037037 12.8953095,13.037037 L12.8658109,13.0074074 L12.8363123,13.0074074 C12.8068137,13.0074074 12.7773151,13.0074074 12.7773151,13.037037 L12.8068137,13.037037 L12.8068137,13.0666667 C12.7773151,13.0666667 12.7478165,13.0666667 12.7478165,13.0962963 L12.7478165,13.1259259 C12.7478165,13.1259259 12.7183179,13.1555556 12.7478165,13.1851852 L12.7773151,13.1555556 C12.7773151,13.1555556 12.8068137,13.1259259 12.8363123,13.1555556 C12.8068137,13.1555556 12.8068137,13.1851852 12.8068137,13.1851852 C12.8068137,13.1851852 12.8068137,13.2148148 12.8363123,13.2444444 L12.8363123,13.2148148 L12.8658109,13.2148148 C12.8953095,13.1851852 12.8953095,13.1555556 12.8953095,13.1555556 C12.8953095,13.1555556 12.9248081,13.1851852 12.9543067,13.1555556 L12.9543067,13.1259259 C12.9543067,13.1259259 12.9838053,13.1555556 12.9838053,13.1259259 C12.9543067,13.0962963 12.9838053,13.0962963 12.9838053,13.0666667 C12.9838053,13.0666667 13.0133039,13.0666667 13.0428025,13.037037 C13.0133039,13.037037 12.9838053,13.0074074 13.0133039,13.0074074 C13.0428025,13.0074074 13.0723011,12.9777778 13.0428025,12.9481481 C13.0133039,12.9185185 12.9248081,12.9185185 12.9248081,12.8888889 C13.0428025,12.8888889 13.2787913,12.8888889 13.2787913,12.7703704 C13.2787913,12.6222222 12.6888192,12.7703704 12.6888192,12.6814815 C12.8953095,12.6222222 12.9248081,12.5925926 12.9838053,12.5925926 L12.9838053,12.5925926 Z M3.54425214,2.4 C3.54425214,2.19259258 3.27876471,2.19259258 3.27876471,2.4 C3.27876471,2.60740742 3.54425214,2.57777777 3.54425214,2.4 L3.54425214,2.4 Z M3.48525494,2.01481481 C3.48525494,1.83703704 3.19026891,1.83703704 3.19026891,2.01481481 C3.19026891,2.19259258 3.48525494,2.22222223 3.48525494,2.01481481 L3.48525494,2.01481481 Z M3.57375076,1.86666667 C3.78024099,1.86666667 3.78024099,1.6 3.57375076,1.6 C3.36726053,1.6 3.36726053,1.86666667 3.57375076,1.86666667 L3.57375076,1.86666667 Z M3.92773399,1.83703704 C4.01622981,1.83703704 4.07522701,1.77777777 4.07522701,1.68888889 C4.07522701,1.48148148 3.80973958,1.48148148 3.80973958,1.68888889 C3.78024099,1.77777777 3.86873679,1.83703704 3.92773399,1.83703704 L3.92773399,1.83703704 Z M5.5501572,1.57037037 C5.6976502,1.71851852 5.87464184,1.51111111 5.75664741,1.36296296 C5.638653,1.21481481 5.40266417,1.45185185 5.5501572,1.57037037 L5.5501572,1.57037037 Z M5.52065858,1.27407407 C5.66815161,1.12592593 5.46166138,0.948148149 5.31416835,1.06666667 C5.16667535,1.18518519 5.37316558,1.42222222 5.52065858,1.27407407 L5.52065858,1.27407407 Z M5.13717674,1.21481481 C5.28466976,1.06666667 5.07817953,0.888888888 4.93068651,1.00740741 C4.7831935,1.12592593 4.98968373,1.36296296 5.13717674,1.21481481 L5.13717674,1.21481481 Z M4.8126921,1.45185185 C4.8716893,1.39259259 4.8716893,1.3037037 4.8126921,1.24444444 C4.66519909,1.0962963 4.48820746,1.3037037 4.60620188,1.45185185 C4.69469768,1.48148148 4.75369489,1.48148148 4.8126921,1.45185185 L4.8126921,1.45185185 Z M3.92773399,1.24444444 L4.0457284,1.51111111 L4.19322143,1.33333333 C4.22272004,1.36296296 4.22272004,1.6 4.22272004,1.62962963 C4.22272004,1.74814815 4.31121584,1.80740742 4.39971166,1.80740742 C4.60620188,1.80740742 4.66519909,1.54074074 4.48820746,1.48148148 C4.45870886,1.45185185 4.28171724,1.3037037 4.28171724,1.27407407 L4.54720468,1.3037037 L4.45870886,1.03703704 L4.28171724,1.18518519 L4.28171724,0.918518519 L4.01622981,1.00740741 L4.19322143,1.21481481 L4.19322143,1.24444444 L3.92773399,1.24444444 L3.92773399,1.24444444 Z M5.5501572,1.68888889 C5.6976502,1.92592593 5.638653,1.95555556 5.49115999,1.74814815 L5.52065858,2.07407407 C5.75664741,1.74814815 5.6091544,2.25185186 5.46166138,2.28148149 C5.19617394,2.34074074 5.25517115,1.92592593 5.43216278,2.1037037 C5.46166138,1.8962963 5.28466976,1.8962963 5.19617394,1.98518519 C5.28466976,1.77777777 5.25517115,1.68888889 5.07817953,1.57037037 C4.96018512,1.74814815 5.01918233,1.86666667 5.16667535,1.98518519 C5.01918233,1.92592593 4.90118791,2.04444444 5.01918233,2.19259258 C5.04868094,2.04444444 5.16667535,2.07407407 5.19617394,2.19259258 C5.25517115,2.4 4.84219071,2.60740742 4.66519909,2.25185186 C4.7241963,2.22222223 4.8126921,2.22222223 4.93068651,2.31111112 L4.84219071,2.01481481 C4.75369489,2.22222223 4.57670327,2.34074074 4.69469768,1.92592593 L4.31121584,2.1037037 C4.69469768,2.31111112 4.48820746,2.34074074 4.28171724,2.25185186 L4.45870886,2.54814814 C4.48820746,2.4 4.57670327,2.31111112 4.60620188,2.31111112 C4.75369489,2.66666667 4.31121584,2.81481481 4.19322143,2.60740742 C4.13422422,2.51851851 4.19322143,2.4 4.31121584,2.48888888 C4.28171724,2.28148149 4.13422422,2.28148149 4.07522701,2.42962963 C4.07522701,2.22222223 4.01622981,2.13333333 3.80973958,2.07407407 C3.75074237,2.28148149 3.83923819,2.37037037 4.01622981,2.45925926 C3.8982354,2.45925926 3.78024099,2.54814814 3.92773399,2.6962963 C3.92773399,2.42962963 4.22272004,2.6962963 4.0457284,2.84444444 C3.92773399,2.93333333 3.48525494,2.63703704 3.86873679,2.72592593 L3.66224656,2.45925926 C3.69174517,2.6962963 3.63274796,2.72592593 3.57375076,2.45925926 L3.39675914,2.60740742 C3.54425214,2.6962963 3.72124378,2.84444444 3.92773399,3.14074074 C4.37021304,2.87407407 5.16667535,2.51851851 5.72714881,2.4 C5.66815161,2.07407407 5.6976502,1.83703704 5.75664741,1.65925926 C5.78614602,1.68888889 5.5501572,1.68888889 5.5501572,1.68888889 L5.5501572,1.68888889 Z M5.99263625,3.58518519 C5.78614602,3.76296296 5.5501572,3.58518519 5.40266417,3.37777777 C5.66815161,3.25925926 5.99263625,3.14074074 6.19912648,3.02222223 C6.02213484,3.31851851 6.16962787,3.43703704 5.99263625,3.58518519 L5.99263625,3.58518519 Z M5.93363904,5.62962963 C5.5501572,5.80740742 5.25517115,5.18518519 5.40266417,5.03703704 C5.52065858,4.91851851 5.5501572,4.82962963 5.49115999,4.71111112 C5.40266417,4.53333333 5.22567255,4.62222223 5.07817953,4.68148149 C5.16667535,4.53333333 5.16667535,4.41481481 5.04868094,4.41481481 C4.90118791,4.44444444 4.90118791,4.65185186 4.8126921,4.62222223 C4.7241963,4.59259258 4.7831935,4.47407407 4.7831935,4.38518519 C4.7831935,4.20740742 5.13717674,4.11851851 5.638653,3.94074074 C5.72714881,3.91111112 5.81564463,3.88148149 5.87464184,3.94074074 C5.93363904,4 6.05163345,4.05925926 6.02213484,4.11851851 C5.99263625,4.20740742 5.81564463,4.02962963 5.72714881,4.11851851 C5.638653,4.17777777 5.72714881,4.26666667 5.87464184,4.32592593 C5.6976502,4.41481481 5.5501572,4.5037037 5.6091544,4.62222223 C5.66815161,4.77037037 5.75664741,4.8 5.87464184,4.8 C5.96313764,4.8 6.02213484,4.91851851 6.11063066,5.06666667 C6.19912648,5.27407407 6.22862507,5.51111112 5.93363904,5.62962963 L5.93363904,5.62962963 Z M4.54720468,4.14814814 C4.34071445,4.17777777 4.34071445,3.97037037 4.01622981,3.88148149 C4.28171724,3.82222223 4.57670327,3.7037037 4.84219071,3.61481481 C4.90118791,3.82222223 4.7831935,4.11851851 4.54720468,4.14814814 L4.54720468,4.14814814 Z M8.64751056,10.7259259 C8.70650777,10.5777778 8.41152174,10.4296296 8.38202313,10.1925926 C8.26402872,9.33333333 8.23453012,9.77777777 6.78909854,8 C6.84809574,8 7.02508738,7.97037037 7.14308179,8.11851851 C7.99854128,8.91851851 7.11358318,8.47407407 8.64751056,6.93333333 C8.50001754,6.99259258 8.29352733,7.02222223 8.14603431,7.11111112 C8.14603431,6.84444444 8.14603431,6.66666667 7.96904269,6.48888888 C8.02803989,6.16296296 7.96904269,5.71851851 7.20207899,5.18518519 C7.58556084,5.27407407 7.85104828,5.62962963 8.11653569,5.36296296 C7.85104828,5.36296296 7.85104828,4.74074074 6.84809574,4.26666667 C7.20207899,4.26666667 7.52656364,4.85925926 7.96904269,4.53333333 C7.55606223,4.47407407 7.40856922,3.73333333 6.67110412,3.52592593 C6.93659156,3.55555556 7.20207899,3.7037037 7.40856922,3.37777777 C7.14308179,3.43703704 6.99558877,3.2 6.73010133,3.17037037 C6.84809574,2.87407407 6.81859715,2.66666667 6.70060274,2.4 C6.49411251,2.4 6.31712089,2.48888888 6.16962787,2.60740742 C6.14012925,2.42962963 5.96313764,2.4 5.81564463,2.42962963 C5.81564463,2.51851851 5.87464184,2.63703704 5.78614602,2.63703704 C5.25517115,2.75555556 4.54720468,2.99259258 4.01622981,3.37777777 C3.9572326,3.43703704 3.86873679,3.31851851 3.83923819,3.25925926 C3.72124378,3.37777777 3.60324935,3.4962963 3.69174517,3.61481481 C3.48525494,3.64444444 3.30826332,3.67407407 3.10177309,3.82222223 C3.10177309,4.05925926 3.30826332,4.23703704 3.54425214,4.38518519 C3.19026891,4.8 3.60324935,5.24444444 3.19026891,5.62962963 C3.75074237,5.65925926 3.66224656,4.85925926 3.9572326,4.77037037 C3.92773399,5.33333333 3.63274796,5.42222223 3.63274796,6.04444444 C3.63274796,6.34074074 3.83923819,6.72592593 3.66224656,6.9037037 C4.13422422,6.75555556 3.9867312,5.71851851 4.31121584,5.42222223 C4.37021304,5.6 4.34071445,5.77777777 4.28171724,5.95555556 C4.10472561,6.42962963 4.31121584,7.11111112 4.01622981,7.34814814 C4.48820746,7.28888888 4.54720468,6.51851851 4.96018512,6.22222223 C4.63570048,6.93333333 4.25221863,8.41481481 3.75074237,9.18518519 C2.92478147,10.3111111 2.42330522,11.6740741 1.68584013,11.6740741 C1.36135549,11.6740741 1.09586805,11.4666667 1.09586805,11.0518519 C1.09586805,9.77777777 3.24926612,8.91851851 3.24926612,7.55555556 C3.24926612,6.84444444 2.48230242,6.4 1.80383455,6.99259258 C0.771383415,6.57777777 1.03687085,8.32592593 0.328904363,8.32592593 C0.594391794,8.47407407 1.06636945,8.17777777 1.30235828,7.79259258 C1.18436386,8.68148149 -0.0840760873,8.44444444 0.00441972339,9.54074074 C0.181411345,8.71111112 3.0722745,8.5037037 2.06932198,7.17037037 C2.2463136,7.05185186 2.36430801,7.02222223 2.48230242,7.02222223 C2.74778986,7.02222223 2.95428009,7.22962963 2.95428009,7.55555556 C2.95428009,8.8 -0.0545774837,10.1925926 0.977873641,11.6444444 C0.830380623,11.7037037 0.682887605,11.6740741 0.535394587,11.5259259 C0.535394587,11.8814815 1.03687085,12.1185185 1.36135549,11.9111111 L1.59734431,11.9703704 C1.5088485,12.237037 1.18436386,12.2962963 1.00737224,12.2962963 C1.53834711,12.7111111 2.45280381,12.1481481 2.3938066,11.7037037 C3.04277589,11.1703704 3.42625773,9.98518519 3.33776193,10.6666667 C3.04277589,11.2296296 2.74778986,11.7333333 2.65929404,12.4740741 C2.60029683,13.0962963 2.27581219,13.6592593 1.83333314,13.6592593 C1.74483733,13.6592593 1.56784571,13.5407407 1.5088485,13.6 C1.36135549,13.7185185 1.5088485,13.8666667 1.5088485,13.9555556 C1.5088485,14.1333333 1.18436386,14.3111111 1.18436386,14.8444444 C1.18436386,15.1111111 1.33185688,15.3777778 1.27285968,15.5555556 C1.42035269,15.4666667 1.59734431,15.2592593 1.65634152,14.9333333 C1.80383455,15.6740741 1.36135549,15.6444444 1.68584013,16.2666667 C1.74483733,15.8814815 2.3053108,15.9407407 2.03982337,16.2962963 C1.98082616,16.3555556 1.86283175,16.8296296 2.3053108,16.8 C2.21681499,16.7407407 2.21681499,16.6222222 2.45280381,16.562963 C2.74778986,16.5037037 2.83628566,16.6518519 3.1607703,16.6518519 C3.36726053,16.6518519 3.42625773,16.3851852 3.57375076,16.3851852 C3.72124378,16.3851852 3.75074237,16.5037037 3.69174517,16.6222222 C3.9572326,16.562963 3.9867312,16.4148148 3.9867312,16.2962963 C3.9867312,16.1777778 3.86873679,16.0592593 3.9572326,16.0296296 C4.0457284,15.9703704 4.34071445,16.0296296 4.22272004,16.2962963 C4.57670327,16.237037 4.51770607,15.6148148 4.0457284,15.7037037 C4.01622981,15.5851852 3.83923819,15.5259259 3.69174517,15.5259259 C3.33776193,15.5259259 3.39675914,15.7925926 3.1607703,15.7925926 C2.77728845,15.7925926 2.3938066,15.2888889 2.3938066,14.4296296 C2.3938066,13.6592593 3.69174517,13.9555556 4.54720468,12.562963 C4.8126921,12.0888889 4.84219071,11.5555556 4.8126921,10.9333333 C5.46166138,11.3185185 5.5501572,12.2666667 4.98968373,12.5333333 C4.84219071,12.5925926 4.8126921,12.562963 4.7831935,12.6518519 C4.75369489,12.7407407 4.84219071,12.8 4.90118791,12.8592593 C5.07817953,12.9481481 5.04868094,13.1259259 5.10767814,13.3037037 C5.16667535,13.5111111 5.34366697,13.7777778 5.57965579,13.9851852 C5.6091544,13.8666667 5.6091544,13.6888889 5.57965579,13.4518519 C5.93363904,13.6592593 5.66815161,14.4 6.40561669,14.4 C6.25812368,14.3111111 6.28762228,14.1333333 6.37611809,14.1037037 C6.46461389,14.0740741 6.55310971,14.162963 6.67110412,14.3703704 C6.81859715,14.5777778 6.78909854,14.5481481 7.11358318,14.5481481 C7.43806782,14.5481481 7.32007341,14.4296296 7.46756643,14.4296296 C7.67405664,14.4296296 7.64455805,14.6666667 7.55606223,14.7851852 C7.85104828,14.6962963 7.93954408,14.4592593 7.85104828,14.2222222 C8.11653569,14.0740741 8.26402872,14.2814815 8.29352733,14.4296296 C8.55901475,14.162963 8.29352733,13.837037 8.05753849,13.8074074 C8.0870371,13.5703704 7.76255246,13.5703704 7.52656364,13.5703704 L7.20207899,13.7777778 C6.75959994,13.7777778 5.81564463,12.9481481 5.81564463,12.5925926 C5.81564463,12.237037 6.67110412,12 6.67110412,11.4666667 C6.67110412,10.7259259 5.96313764,10.4888889 5.34366697,10.0444444 C5.57965579,9.77777777 6.16962787,9.74814814 6.55310971,9.92592593 C6.58260832,9.71851851 6.73010133,9.77777777 6.78909854,9.42222223 C6.93659156,9.71851851 6.78909854,9.98518519 6.90709295,10.1333333 C7.02508738,9.98518519 7.2610762,9.98518519 7.23157759,9.62962963 C7.32007341,9.86666667 7.11358318,10.2222222 7.32007341,10.4 C7.349572,10.1037037 7.67405664,10.1037037 7.67405664,10.3407407 C7.67405664,10.6074074 7.32007341,10.5185185 7.32007341,10.8148148 C7.32007341,10.962963 7.49706502,11.0222222 7.49706502,11.0814815 C7.49706502,11.1407407 7.349572,11.3185185 7.20207899,11.2 C7.37907061,11.5851852 7.79205105,11.4666667 7.93954408,11.1407407 C8.02803989,11.3481481 7.96904269,11.5851852 7.79205105,11.6148148 C7.96904269,11.7037037 8.32302592,11.6148148 8.26402872,11.1407407 C8.50001754,11.1703704 8.58851336,11.3185185 8.47051895,11.5851852 C8.64751056,11.5259259 8.79500359,11.437037 8.79500359,11.2888889 C8.73600638,10.9333333 8.58851336,10.8740741 8.64751056,10.7259259 L8.64751056,10.7259259 Z M22.60035,14.1925926 C22.60035,13.6 23.4853082,13.6 23.4853082,14.1925926 C23.5148068,14.8148148 22.60035,14.8148148 22.60035,14.1925926 L22.60035,14.1925926 Z M22.4528571,14.1925926 C22.4528571,14.5185185 22.7183444,14.8148148 23.0723276,14.8148148 C23.8982887,14.8148148 23.8982887,13.6 23.0723276,13.6 C22.7183444,13.6 22.4528571,13.8666667 22.4528571,14.1925926 L22.4528571,14.1925926 Z M20.4469519,15.3185185 C20.2699604,15.2888889 20.151966,15.1407407 20.1814646,15.0518519 C20.1814646,14.9925926 20.2404617,14.9333333 20.2699604,14.9037037 C20.3584562,14.8444444 20.4469519,14.8444444 20.5354479,14.8444444 C20.9484282,14.9333333 20.8599325,15.3777778 20.4469519,15.3185185 L20.4469519,15.3185185 Z M20.1814646,14.7555556 C20.0929687,14.8148148 20.0339716,14.9037037 20.0339716,14.9925926 C20.0044729,15.1111111 20.0339716,15.2296296 20.1224673,15.2888889 C20.3879548,15.5555556 20.9189296,15.4962963 20.9484282,15.1407407 C21.036924,14.7851852 20.5354479,14.5481481 20.1814646,14.7555556 L20.1814646,14.7555556 Z M16.8186237,6.54814814 C16.8186237,6.25185186 17.3495986,6.13333333 17.3201,6.42962963 C17.2611028,6.72592593 16.8186237,6.81481481 16.8186237,6.54814814 L16.8186237,6.54814814 Z M16.8186237,6.19259258 C16.3761447,6.51851851 16.7596265,7.14074074 17.2611028,6.78518519 C17.7035818,6.4 17.2906014,5.83703704 16.8186237,6.19259258 Z M19.6799883,14.4592593 C19.3850022,14.4592593 19.3850022,13.8074074 19.6799883,13.8074074 C20.0339716,13.8074074 20.0044729,14.4592593 19.6799883,14.4592593 L19.6799883,14.4592593 Z M19.473498,13.7481481 C19.2080107,14.0148148 19.3260051,14.5777778 19.7094868,14.5777778 C20.4174535,14.637037 20.0339716,13.1851852 19.473498,13.7481481 L19.473498,13.7481481 Z M16.6121335,9.42222223 C16.3171475,9.27407407 16.3761447,8.97777777 16.5236377,8.97777777 C16.7301279,8.91851851 16.9661168,9.06666667 16.9956154,9.21481481 C16.9956154,9.24444444 17.025114,9.3037037 16.9956154,9.36296296 C16.9661168,9.42222223 16.9071196,9.45185186 16.877621,9.45185186 C16.8186237,9.48148149 16.7006293,9.45185186 16.6121335,9.42222223 L16.6121335,9.42222223 Z M16.4941391,8.8 C15.9631642,8.97777777 16.4941391,9.77777777 16.9366182,9.57037037 C17.4380944,9.39259258 17.0841112,8.65185186 16.4941391,8.8 L16.4941391,8.8 Z M20.8894311,11.5851852 C20.7714367,11.7333333 20.6239436,11.7925926 20.5059492,11.7037037 C20.2404617,11.4962963 20.594445,10.9925926 20.8599325,11.2 C20.9779269,11.2888889 21.0074255,11.437037 20.8894311,11.5851852 L20.8894311,11.5851852 Z M20.1814646,12.7407407 C19.9159772,13.0666667 19.5324953,12.8 19.7979827,12.4740741 C19.9159772,12.3259259 20.0634702,12.2666667 20.1814646,12.3555556 C20.2699604,12.4444444 20.2699604,12.5925926 20.1814646,12.7407407 L20.1814646,12.7407407 Z M17.7330805,6.48888888 L17.9985679,5.68888888 L18.2640554,5.80740742 C18.1755595,5.83703704 18.0870637,5.92592593 17.9985679,6.01481481 C18.057565,6.04444444 18.1755595,6.04444444 18.2640554,5.98518519 L18.146061,6.28148149 C17.9395706,5.92592593 17.8215762,6.31111112 18.146061,6.48888888 C18.6180386,6.75555556 18.5295427,6.22222223 18.2640554,6.34074074 C18.2345568,6.07407407 18.5295427,6.04444444 18.5590413,6.28148149 C18.5590413,6.04444444 18.6475371,5.86666667 18.8540275,5.80740742 C18.9425232,6.04444444 18.8835259,6.19259258 18.6770358,6.37037037 C18.9425232,6.25185186 19.031019,6.54814814 18.8245288,6.63703704 C18.7655315,6.37037037 18.2935539,6.60740742 18.736033,6.87407407 C19.0900163,7.08148149 19.3260051,6.54814814 18.9130246,6.81481481 L19.1195147,6.48888888 C19.1195147,6.54814814 19.1490134,6.63703704 19.2375092,6.6962963 C19.2670078,6.60740742 19.2965065,6.45925926 19.2375092,6.37037037 L19.620991,6.60740742 C19.3850022,6.63703704 19.2375092,6.9037037 19.5619939,6.78518519 L19.3850022,7.08148149 C19.3850022,6.96296296 19.3555036,6.87407407 19.2965065,6.81481481 C19.0900163,7.17037037 19.620991,7.43703704 19.7389855,7.25925926 C19.7979827,7.17037037 19.7094868,6.99259258 19.5324953,7.05185186 C19.5324953,6.78518519 19.7979827,6.75555556 19.8569799,7.02222223 C19.9159772,6.78518519 20.0339716,6.66666667 20.2404617,6.60740742 C20.299459,6.84444444 20.1814646,6.99259258 19.9749743,7.11111112 C20.2404617,7.02222223 20.299459,7.31851851 20.0929687,7.40740742 C20.0634702,7.25925926 19.8864785,7.2 19.8274814,7.31851851 C19.7389855,7.46666667 20.151966,7.82222223 20.4174535,7.58518519 C20.3584562,7.52592593 20.2404617,7.4962963 20.1814646,7.4962963 L20.3879548,7.25925926 C20.3879548,7.34814814 20.4469519,7.46666667 20.5059492,7.4962963 C20.5354479,7.37777777 20.5649463,7.25925926 20.5354479,7.17037037 L20.7714367,7.37777777 C20.7714367,7.37777777 20.4174535,7.76296296 20.2109631,8 C20.2699604,7.97037037 17.7330805,6.48888888 17.7330805,6.48888888 L17.7330805,6.48888888 Z M20.6829407,9.8962963 C20.6829407,9.42222223 21.5089016,9.92592593 21.184417,10.2222222 C21.036924,10.3703704 20.6829407,10.1925926 20.6829407,9.8962963 L20.6829407,9.8962963 Z M21.7743891,14.9333333 C21.8333864,14.6666667 22.2168683,14.5481481 22.3348627,14.7259259 C22.5708515,15.0814815 21.715392,15.4074074 21.7743891,14.9333333 L21.7743891,14.9333333 Z M16.6121335,7.34814814 C16.6121335,7.76296296 16.1696545,7.67407407 16.2581503,7.34814814 C16.2581503,6.99259258 16.6121335,6.99259258 16.6121335,7.34814814 L16.6121335,7.34814814 Z M18.2050581,4.05925926 C18.2935539,3.88148149 18.2050581,3.64444444 18.5000442,3.64444444 C18.6475371,3.64444444 18.7655315,3.79259258 18.9425232,3.85185186 C18.6770358,3.85185186 18.4115483,3.91111112 18.2050581,4.05925926 L18.2050581,4.05925926 Z M22.8658375,8.17777777 C23.0723276,8.71111112 23.4558095,8.91851851 23.7507956,8.77037037 C23.0723276,8.68148149 23.6033026,7.52592593 22.7773417,7.52592593 C22.4823556,7.52592593 22.5413529,7.31851851 22.0693752,7.31851851 C21.715392,7.31851851 21.0664226,7.67407407 21.0664226,8.41481481 C21.0664226,9.98518519 22.8953361,10.1333333 22.8953361,11.5259259 C22.8953361,11.9407407 22.60035,12.2074074 22.2463667,12.2074074 C21.7448905,12.2074074 21.6563947,11.5259259 20.7714367,10.3407407 C21.0664226,10.5481481 21.4204059,10.3703704 21.4204059,10.0740741 C21.4204059,9.39259258 20.3289575,9.36296296 20.594445,10.0740741 C19.5914924,8.77037037 19.7389855,8.71111112 20.2109631,8.05925926 L20.299459,8.08888888 C20.3879548,8 20.8599325,7.52592593 20.9189296,7.40740742 L21.0074255,7.31851851 L20.7714367,7.17037037 L20.9189296,6.78518519 C20.9779269,7.05185186 21.1254199,7.2 21.2729128,7.14074074 C21.1549184,6.87407407 21.3909072,6.51851851 21.2434143,5.86666667 C21.3909072,6.13333333 21.5973976,6.22222223 21.7743891,6.19259258 C21.3909072,5.83703704 21.8923835,5.33333333 21.3614087,4.56296296 C21.5384003,4.62222223 21.626896,4.59259258 21.715392,4.5037037 C21.2434143,4.44444444 21.4499045,3.82222223 20.6239436,3.61481481 C20.8304338,3.58518519 20.9484282,3.43703704 20.9189296,3.34814814 C20.6829407,3.52592593 20.5059492,3.05185186 19.7684841,3.08148149 C19.7094868,2.81481481 19.473498,2.51851851 19.178512,2.37037037 C19.2375092,2.60740742 19.178512,2.75555556 19.1195147,2.93333333 L16.7301279,0.592592593 C15.8451698,-0.237037037 18.8835259,3.52592593 18.6475371,3.22962963 C18.2345568,3.37777777 17.9985679,3.37777777 17.9985679,3.64444444 C17.615086,3.85185186 17.2906014,4.05925926 17.1431084,4.20740742 C16.9956154,4.32592593 16.9071196,4.35555556 17.025114,4.59259258 C17.0841112,4.68148149 16.9366182,4.91851851 17.2316042,4.77037037 C18.0280666,4.2962963 18.146061,4.59259258 17.5855874,4.8 C17.4380944,4.85925926 17.2906014,4.97777777 17.3201,5.03703704 L17.467593,5.0962963 C17.467593,5.15555556 17.5265902,5.24444444 17.5855874,5.24444444 C17.6445846,5.24444444 17.7330805,5.12592593 17.7920778,5.15555556 C17.8510749,5.18518519 17.7625791,5.45185186 17.7035818,5.54074074 C17.9395706,5.51111112 18.0870637,5.27407407 18.0870637,5.12592593 C18.0870637,4.97777777 18.146061,4.88888888 18.1755595,4.85925926 C18.2050581,4.82962963 18.2640554,5.06666667 18.2050581,5.15555556 C18.3230525,5.12592593 18.4705456,4.94814814 18.4410469,4.68148149 C18.736033,4.41481481 18.7065344,4.82962963 19.0605176,4.82962963 C19.5619939,4.82962963 19.8864785,4.2962963 19.6504897,4 C19.7979827,4.11851851 19.8569799,4.2962963 19.8569799,4.44444444 C19.8569799,5.03703704 18.8835259,5.27407407 18.3820498,5.74814814 L17.9100722,5.54074074 C17.8510749,5.77777777 17.6740833,6.25185186 17.6445846,6.42962963 L17.615086,6.51851851 L17.6445846,6.57777777 C17.3790972,6.93333333 17.1431084,7.37777777 17.0841112,7.82222223 C16.9661168,7.7037037 16.8481224,7.58518519 16.7596265,7.52592593 C16.7596265,7.4962963 16.7891251,7.43703704 16.7891251,7.37777777 C16.8186237,7.02222223 16.4941391,6.78518519 16.2286517,7.02222223 C16.1696545,7.08148149 16.1991531,7.08148149 16.1401559,7.02222223 C15.6681782,6.66666667 15.5206852,6.34074074 15.0487075,6.66666667 C14.7242229,6.96296296 14.7242229,6.78518519 15.0487075,7.17037037 C15.0782061,7.14074074 15.1077047,7.11111112 15.1372033,7.11111112 C15.4026908,6.84444444 15.5501838,7.34814814 16.2581503,8.11851851 C16.0811587,8.17777777 15.9926628,8.23703704 15.5796824,8.20740742 C15.4321894,8.20740742 15.4026908,8.14814814 15.314195,8.32592593 C14.9602117,8.88888888 15.1962006,8.44444444 15.8156712,9.92592593 C16.0221615,10.4296296 16.5236377,10.3111111 16.9366182,10.7259259 L16.9661168,10.4888889 C16.8481224,10.3703704 16.3171475,10.2518519 16.6121335,10.2518519 C16.7006293,10.2518519 16.9661168,10.3407407 17.172607,10.4296296 C17.1136098,10.1925926 16.9071196,9.98518519 16.7891251,9.83703704 C16.6121335,9.77777777 16.4646405,9.77777777 16.4056433,9.83703704 C16.4056433,10.0148148 16.1696545,9.95555556 16.2286517,9.83703704 C16.2581503,9.77777777 16.3466461,9.74814814 16.3171475,9.62962963 C16.2876489,9.51111112 16.1401559,9.48148149 16.0516601,9.48148149 C15.1372033,8.20740742 15.8746684,8.77037037 17.1431084,8.77037037 C17.3201,10.4592593 18.7065344,9.68888888 19.1195147,10.7851852 C17.5560888,10.7555556 17.2906014,11.3777778 17.2906014,11.9407407 C17.2906014,12.5925926 17.8510749,12.562963 17.8510749,13.0666667 C17.8510749,13.4814815 16.5236377,13.6888889 16.1401559,13.7481481 C15.8156712,13.8074074 15.609181,13.8666667 15.4321894,14.0148148 C15.2551978,14.1925926 15.1077047,14.3111111 14.8127187,14.637037 C14.8127187,14.637037 14.9307131,14.6666667 15.0782061,14.6666667 L15.314195,14.4 C15.3731922,14.3111111 15.4321894,14.2222222 15.4911866,14.2222222 C15.5501838,14.2222222 15.5206852,14.3111111 15.461688,14.4296296 L15.2551978,14.7259259 C16.0516601,14.7851852 16.0811587,14.4888889 16.0811587,14.3703704 C16.0811587,14.2518519 15.8746684,14.162963 15.9926628,14.1037037 C16.1106573,14.0148148 16.1991531,14.0740741 16.2581503,14.1925926 C16.3466461,14.3111111 16.3761447,14.4 16.5826349,14.3111111 C16.5826349,14.3111111 18.2640554,13.6 18.5000442,13.5111111 C18.7065344,13.4222222 18.6475371,13.3333333 18.5295427,13.2444444 C18.4115483,13.1259259 18.3820498,12.9777778 18.3820498,12.8 C18.3820498,12.2962963 18.6770358,12.1185185 19.2080107,12.1481481 C19.0900163,13.2444444 20.4174535,13.9851852 20.6829407,13.9851852 C20.8304338,13.9851852 21.0074255,13.8666667 21.036924,14.3407407 C21.0664226,15.0814815 21.2729128,15.5555556 20.6239436,16 C20.3584562,16.1777778 20.151966,16.7111111 20.0339716,16.8296296 C20.151966,16.9185185 20.2699604,16.9185185 20.3289575,16.6518519 C20.4174535,16.4148148 20.5059492,16.2962963 20.594445,16.237037 C20.5059492,16.5037037 20.4174535,16.8296296 20.3879548,16.9481481 C20.6829407,17.0074074 21.2139157,16.7111111 21.2139157,16.5037037 C21.2139157,16.2666667 21.036924,16.2962963 21.036924,16.1777778 C21.036924,15.9703704 21.3909072,16 21.4204059,16.1777778 C21.5678989,16.0888889 21.6563947,15.9703704 21.6563947,15.6444444 L21.9218822,15.4666667 C22.1873696,15.4962963 22.4823556,15.2296296 22.4823556,14.962963 C22.4823556,14.4888889 21.715392,14.5185185 21.5973976,14.9925926 C21.5678989,14.5777778 21.5384003,14.162963 21.5384003,13.9851852 C21.5678989,13.7185185 21.5678989,13.6296296 21.4794032,13.6 C21.3909072,13.5703704 21.3024115,13.7185185 21.2139157,13.7185185 C21.1254199,13.7185185 20.741938,13.3925926 20.741938,13.037037 C20.741938,12.6814815 21.0959213,12.237037 21.0959213,11.762963 C21.0959213,11.6148148 21.184417,11.5259259 21.2434143,11.6740741 C21.3319101,11.8518519 21.4204059,12.0296296 21.5678989,12.237037 C21.4499045,12.8296296 22.1283723,13.4222222 22.6593473,12.9777778 C22.3938598,13.0074074 22.2168683,12.7703704 22.0988739,12.562963 L22.3348627,12.562963 C22.5413529,12.8 23.1313249,12.8 23.2493193,12.2074074 C23.1313249,12.3259259 22.9543332,12.4444444 22.7773417,12.4148148 C23.0133305,12.237037 23.1018263,11.9703704 23.1018263,11.6444444 C23.1018263,10.162963 21.2729128,9.95555556 21.2729128,8.62222223 C21.2729128,8.02962963 21.9218822,7.58518519 22.305364,7.88148149 C22.1873696,8 22.1283723,8.17777777 22.1283723,8.41481481 C22.1873696,9.48148149 23.9277872,9.45185186 23.9572858,9.95555556 C24.2522719,9.00740742 22.9248347,9.24444444 22.8658375,8.17777777 L22.8658375,8.17777777 Z" id="Shape"></path>
            </g>
        </g>
    </g>
</svg>