<?xml version="1.0" encoding="UTF-8"?>
<svg width="21px" height="24px" viewBox="0 0 21 24" version="1.1" xmlns="http://www.w3.org/2000/svg" xmlns:xlink="http://www.w3.org/1999/xlink">
    <!-- Generator: Sketch 58 (84663) - https://sketch.com -->
    <title>Combined Shape</title>
    <desc>Created with Sketch.</desc>
    <g id="Page-1" stroke="none" stroke-width="1" fill="none" fill-rule="evenodd">
        <g id="Artboard" fill="#FFFFFF">
            <path d="M4.71232877,22.9041096 L4.71232877,24 L3.61643836,24 L3.61643836,22.9041096 L4.71232877,22.9041096 Z M1.09589041,22.9041096 L1.09589041,24 L0,24 L0,22.9041096 L1.09589041,22.9041096 Z M2.30136986,22.9041096 L2.30136986,24 L1.20547945,24 L1.20547945,22.9041096 L2.30136986,22.9041096 Z M3.50684932,22.9041096 L3.50684932,24 L2.4109589,24 L2.4109589,22.9041096 L3.50684932,22.9041096 Z M1.09589041,21.6986301 L1.09589041,22.7945205 L0,22.7945205 L0,21.6986301 L1.09589041,21.6986301 Z M4.71232877,21.6986301 L4.71232877,22.7945205 L3.61643836,22.7945205 L3.61643836,21.6986301 L4.71232877,21.6986301 Z M3.50684932,21.6986301 L3.50684932,22.7945205 L2.4109589,22.7945205 L2.4109589,21.6986301 L3.50684932,21.6986301 Z M1.09589041,20.4931507 L1.09589041,21.5890411 L0,21.5890411 L0,20.4931507 L1.09589041,20.4931507 Z M4.71232877,20.4931507 L4.71232877,21.5890411 L3.61643836,21.5890411 L3.61643836,20.4931507 L4.71232877,20.4931507 Z M3.50684932,20.4931507 L3.50684932,21.5890411 L2.4109589,21.5890411 L2.4109589,20.4931507 L3.50684932,20.4931507 Z M2.30136986,20.4931507 L2.30136986,21.5890411 L1.20547945,21.5890411 L1.20547945,20.4931507 L2.30136986,20.4931507 Z M2.30136986,19.2876712 L2.30136986,20.3835616 L1.20547945,20.3835616 L1.20547945,19.2876712 L2.30136986,19.2876712 Z M3.50684932,19.2876712 L3.50684932,20.3835616 L2.4109589,20.3835616 L2.4109589,19.2876712 L3.50684932,19.2876712 Z M1.09589041,18.0821918 L1.09589041,19.1780822 L0,19.1780822 L0,18.0821918 L1.09589041,18.0821918 Z M3.50684932,18.0821918 L3.50684932,19.1780822 L2.4109589,19.1780822 L2.4109589,18.0821918 L3.50684932,18.0821918 Z M4.71232877,18.0821918 L4.71232877,19.1780822 L3.61643836,19.1780822 L3.61643836,18.0821918 L4.71232877,18.0821918 Z M2.30136986,18.0821918 L2.30136986,19.1780822 L1.20547945,19.1780822 L1.20547945,18.0821918 L2.30136986,18.0821918 Z M2.30136986,16.8767123 L2.30136986,17.9726027 L1.20547945,17.9726027 L1.20547945,16.8767123 L2.30136986,16.8767123 Z M1.09589041,16.8767123 L1.09589041,17.9726027 L0,17.9726027 L0,16.8767123 L1.09589041,16.8767123 Z M4.71232877,16.8767123 L4.71232877,17.9726027 L3.61643836,17.9726027 L3.61643836,16.8767123 L4.71232877,16.8767123 Z M3.50684932,16.8767123 L3.50684932,17.9726027 L2.4109589,17.9726027 L2.4109589,16.8767123 L3.50684932,16.8767123 Z M4.71232877,15.6712329 L4.71232877,16.7671233 L3.61643836,16.7671233 L3.61643836,15.6712329 L4.71232877,15.6712329 Z M3.50684932,15.6712329 L3.50684932,16.7671233 L2.4109589,16.7671233 L2.4109589,15.6712329 L3.50684932,15.6712329 Z M1.09589041,15.6712329 L1.09589041,16.7671233 L0,16.7671233 L0,15.6712329 L1.09589041,15.6712329 Z M1.09589041,14.4657534 L1.09589041,15.5616438 L0,15.5616438 L0,14.4657534 L1.09589041,14.4657534 Z M2.30136986,14.4657534 L2.30136986,15.5616438 L1.20547945,15.5616438 L1.20547945,14.4657534 L2.30136986,14.4657534 Z M3.50684932,14.4657534 L3.50684932,15.5616438 L2.4109589,15.5616438 L2.4109589,14.4657534 L3.50684932,14.4657534 Z M3.50684932,13.260274 L3.50684932,14.3561644 L2.4109589,14.3561644 L2.4109589,13.260274 L3.50684932,13.260274 Z M1.09589041,13.260274 L1.09589041,14.3561644 L0,14.3561644 L0,13.260274 L1.09589041,13.260274 Z M4.71232877,13.260274 L4.71232877,14.3561644 L3.61643836,14.3561644 L3.61643836,13.260274 L4.71232877,13.260274 Z M2.30136986,13.260274 L2.30136986,14.3561644 L1.20547945,14.3561644 L1.20547945,13.260274 L2.30136986,13.260274 Z M4.71232877,12.0547945 L4.71232877,13.1506849 L3.61643836,13.1506849 L3.61643836,12.0547945 L4.71232877,12.0547945 Z M8.32876712,12.0547945 L8.32876712,13.1506849 L7.23287671,13.1506849 L7.23287671,12.0547945 L8.32876712,12.0547945 Z M5.91780822,12.0547945 L5.91780822,13.1506849 L4.82191781,13.1506849 L4.82191781,12.0547945 L5.91780822,12.0547945 Z M10.739726,12.0547945 L10.739726,13.1506849 L9.64383562,13.1506849 L9.64383562,12.0547945 L10.739726,12.0547945 Z M2.30136986,12.0547945 L2.30136986,13.1506849 L1.20547945,13.1506849 L1.20547945,12.0547945 L2.30136986,12.0547945 Z M7.12328767,10.8493151 L7.12328767,11.9452055 L6.02739726,11.9452055 L6.02739726,10.8493151 L7.12328767,10.8493151 Z M4.71232877,10.8493151 L4.71232877,11.9452055 L3.61643836,11.9452055 L3.61643836,10.8493151 L4.71232877,10.8493151 Z M3.50684932,10.8493151 L3.50684932,11.9452055 L2.4109589,11.9452055 L2.4109589,10.8493151 L3.50684932,10.8493151 Z M9.53424658,10.8493151 L9.53424658,11.9452055 L8.43835616,11.9452055 L8.43835616,10.8493151 L9.53424658,10.8493151 Z M2.30136986,10.8493151 L2.30136986,11.9452055 L1.20547945,11.9452055 L1.20547945,10.8493151 L2.30136986,10.8493151 Z M1.09589041,10.8493151 L1.09589041,11.9452055 L0,11.9452055 L0,10.8493151 L1.09589041,10.8493151 Z M13.1506849,9.64383562 L13.1506849,10.739726 L12.0547945,10.739726 L12.0547945,9.64383562 L13.1506849,9.64383562 Z M10.739726,9.64383562 L10.739726,10.739726 L9.64383562,10.739726 L9.64383562,9.64383562 L10.739726,9.64383562 Z M7.12328767,9.64383562 L7.12328767,10.739726 L6.02739726,10.739726 L6.02739726,9.64383562 L7.12328767,9.64383562 Z M8.32876712,9.64383562 L8.32876712,10.739726 L7.23287671,10.739726 L7.23287671,9.64383562 L8.32876712,9.64383562 Z M1.09589041,9.64383562 L1.09589041,10.739726 L0,10.739726 L0,9.64383562 L1.09589041,9.64383562 Z M2.30136986,9.64383562 L2.30136986,10.739726 L1.20547945,10.739726 L1.20547945,9.64383562 L2.30136986,9.64383562 Z M5.91780822,9.64383562 L5.91780822,10.739726 L4.82191781,10.739726 L4.82191781,9.64383562 L5.91780822,9.64383562 Z M3.50684932,9.64383562 L3.50684932,10.739726 L2.4109589,10.739726 L2.4109589,9.64383562 L3.50684932,9.64383562 Z M4.71232877,8.43835616 L4.71232877,9.53424658 L3.61643836,9.53424658 L3.61643836,8.43835616 L4.71232877,8.43835616 Z M1.09589041,8.43835616 L1.09589041,9.53424658 L0,9.53424658 L0,8.43835616 L1.09589041,8.43835616 Z M11.9452055,8.43835616 L11.9452055,9.53424658 L10.8493151,9.53424658 L10.8493151,8.43835616 L11.9452055,8.43835616 Z M15.4520548,8.43835616 L15.4520548,9.53424658 L14.3561644,9.53424658 L14.3561644,8.43835616 L15.4520548,8.43835616 Z M9.53424658,8.43835616 L9.53424658,9.53424658 L8.43835616,9.53424658 L8.43835616,8.43835616 L9.53424658,8.43835616 Z M5.91780822,8.43835616 L5.91780822,9.53424658 L4.82191781,9.53424658 L4.82191781,8.43835616 L5.91780822,8.43835616 Z M3.50684932,8.43835616 L3.50684932,9.53424658 L2.4109589,9.53424658 L2.4109589,8.43835616 L3.50684932,8.43835616 Z M4.71232877,7.23287671 L4.71232877,8.32876712 L3.61643836,8.32876712 L3.61643836,7.23287671 L4.71232877,7.23287671 Z M2.30136986,7.23287671 L2.30136986,8.32876712 L1.20547945,8.32876712 L1.20547945,7.23287671 L2.30136986,7.23287671 Z M3.50684932,7.23287671 L3.50684932,8.32876712 L2.4109589,8.32876712 L2.4109589,7.23287671 L3.50684932,7.23287671 Z M1.09589041,7.23287671 L1.09589041,8.32876712 L0,8.32876712 L0,7.23287671 L1.09589041,7.23287671 Z M4.71232877,6.02739726 L4.71232877,7.12328767 L3.61643836,7.12328767 L3.61643836,6.02739726 L4.71232877,6.02739726 Z M1.09589041,6.02739726 L1.09589041,7.12328767 L0,7.12328767 L0,6.02739726 L1.09589041,6.02739726 Z M2.30136986,6.02739726 L2.30136986,7.12328767 L1.20547945,7.12328767 L1.20547945,6.02739726 L2.30136986,6.02739726 Z M1.09589041,4.82191781 L1.09589041,5.91780822 L0,5.91780822 L0,4.82191781 L1.09589041,4.82191781 Z M4.71232877,4.82191781 L4.71232877,5.91780822 L3.61643836,5.91780822 L3.61643836,4.82191781 L4.71232877,4.82191781 Z M3.50684932,4.82191781 L3.50684932,5.91780822 L2.4109589,5.91780822 L2.4109589,4.82191781 L3.50684932,4.82191781 Z M2.30136986,4.82191781 L2.30136986,5.91780822 L1.20547945,5.91780822 L1.20547945,4.82191781 L2.30136986,4.82191781 Z M8.32876712,3.61643836 L8.32876712,4.71232877 L7.23287671,4.71232877 L7.23287671,3.61643836 L8.32876712,3.61643836 Z M5.91780822,3.61643836 L5.91780822,4.71232877 L4.82191781,4.71232877 L4.82191781,3.61643836 L5.91780822,3.61643836 Z M10.739726,3.61643836 L10.739726,4.71232877 L9.64383562,4.71232877 L9.64383562,3.61643836 L10.739726,3.61643836 Z M4.71232877,3.61643836 L4.71232877,4.71232877 L3.61643836,4.71232877 L3.61643836,3.61643836 L4.71232877,3.61643836 Z M3.50684932,3.61643836 L3.50684932,4.71232877 L2.4109589,4.71232877 L2.4109589,3.61643836 L3.50684932,3.61643836 Z M1.09589041,3.61643836 L1.09589041,4.71232877 L0,4.71232877 L0,3.61643836 L1.09589041,3.61643836 Z M1.09589041,2.4109589 L1.09589041,3.50684932 L0,3.50684932 L0,2.4109589 L1.09589041,2.4109589 Z M3.50684932,2.4109589 L3.50684932,3.50684932 L2.4109589,3.50684932 L2.4109589,2.4109589 L3.50684932,2.4109589 Z M8.32876712,2.4109589 L8.32876712,3.50684932 L7.23287671,3.50684932 L7.23287671,2.4109589 L8.32876712,2.4109589 Z M11.9452055,2.4109589 L11.9452055,3.50684932 L10.8493151,3.50684932 L10.8493151,2.4109589 L11.9452055,2.4109589 Z M5.91780822,2.4109589 L5.91780822,3.50684932 L4.82191781,3.50684932 L4.82191781,2.4109589 L5.91780822,2.4109589 Z M9.53424658,2.4109589 L9.53424658,3.50684932 L8.43835616,3.50684932 L8.43835616,2.4109589 L9.53424658,2.4109589 Z M2.30136986,2.4109589 L2.30136986,3.50684932 L1.20547945,3.50684932 L1.20547945,2.4109589 L2.30136986,2.4109589 Z M7.12328767,2.4109589 L7.12328767,3.50684932 L6.02739726,3.50684932 L6.02739726,2.4109589 L7.12328767,2.4109589 Z M9.53424658,1.20547945 L9.53424658,2.30136986 L8.43835616,2.30136986 L8.43835616,1.20547945 L9.53424658,1.20547945 Z M10.739726,1.20547945 L10.739726,2.30136986 L9.64383562,2.30136986 L9.64383562,1.20547945 L10.739726,1.20547945 Z M1.09589041,1.20547945 L1.09589041,2.30136986 L0,2.30136986 L0,1.20547945 L1.09589041,1.20547945 Z M2.30136986,1.20547945 L2.30136986,2.30136986 L1.20547945,2.30136986 L1.20547945,1.20547945 L2.30136986,1.20547945 Z M4.71232877,1.20547945 L4.71232877,2.30136986 L3.61643836,2.30136986 L3.61643836,1.20547945 L4.71232877,1.20547945 Z M3.50684932,1.20547945 L3.50684932,2.30136986 L2.4109589,2.30136986 L2.4109589,1.20547945 L3.50684932,1.20547945 Z M13.1506849,1.20547945 L13.1506849,2.30136986 L12.0547945,2.30136986 L12.0547945,1.20547945 L13.1506849,1.20547945 Z M5.91780822,1.20547945 L5.91780822,2.30136986 L4.82191781,2.30136986 L4.82191781,1.20547945 L5.91780822,1.20547945 Z M7.12328767,1.20547945 L7.12328767,2.30136986 L6.02739726,2.30136986 L6.02739726,1.20547945 L7.12328767,1.20547945 Z M5.91780822,0 L5.91780822,1.09589041 L4.82191781,1.09589041 L4.82191781,0 L5.91780822,0 Z M1.09589041,0 L1.09589041,1.09589041 L0,1.09589041 L0,0 L1.09589041,0 Z M14.3561644,0 L14.3561644,1.09589041 L13.260274,1.09589041 L13.260274,0 L14.3561644,0 Z M8.32876712,0 L8.32876712,1.09589041 L7.23287671,1.09589041 L7.23287671,0 L8.32876712,0 Z M3.50684932,0 L3.50684932,1.09589041 L2.4109589,1.09589041 L2.4109589,0 L3.50684932,0 Z M16.7671233,0 L16.7671233,1.09589041 L15.6712329,1.09589041 L15.6712329,0 L16.7671233,0 Z M20.0547945,0 L20.0547945,1.09589041 L18.9589041,1.09589041 L18.9589041,0 L20.0547945,0 Z M11.9452055,0 L11.9452055,1.09589041 L10.8493151,1.09589041 L10.8493151,0 L11.9452055,0 Z M9.53424658,0 L9.53424658,1.09589041 L8.43835616,1.09589041 L8.43835616,0 L9.53424658,0 Z M7.12328767,0 L7.12328767,1.09589041 L6.02739726,1.09589041 L6.02739726,0 L7.12328767,0 Z M2.30136986,0 L2.30136986,1.09589041 L1.20547945,1.09589041 L1.20547945,0 L2.30136986,0 Z" id="Combined-Shape"></path>
        </g>
    </g>
</svg>