<?xml version="1.0" encoding="UTF-8"?>
<svg width="24px" height="24px" viewBox="0 0 24 24" version="1.1" xmlns="http://www.w3.org/2000/svg" xmlns:xlink="http://www.w3.org/1999/xlink">
    <!-- Generator: Sketch 58 (84663) - https://sketch.com -->
    <title>Combined Shape</title>
    <desc>Created with Sketch.</desc>
    <g id="Page-1" stroke="none" stroke-width="1" fill="none" fill-rule="evenodd">
        <g id="Artboard" fill="#FFFFFF" fill-rule="nonzero">
            <g id="goco">
                <g id="Group">
                    <path d="M24,0 L24,24 L0,24 L0,0 L24,0 Z M23.2241045,0.775895512 L0.775895512,0.775895512 L0.775895512,23.2241045 L23.2241045,23.2241045 L23.2241045,0.775895512 Z M17.079012,14.4750928 C18.4259666,14.472003 19.5091167,15.511703 19.5091167,16.8896935 C19.5091167,18.2769946 18.4632096,19.2949695 17.079012,19.2949695 C15.7227466,19.2949695 14.6489072,18.2583731 14.6489072,16.8803827 C14.6489072,15.4930815 15.6948144,14.4750928 17.079012,14.4750928 Z M11.6880899,12.5229535 C12.8891762,12.5229535 13.8078365,13.0474589 14.4782102,14.093366 L13.4136816,14.754429 C13.0164231,14.1057804 12.4546747,13.7457648 11.7284365,13.7457648 C10.6918401,13.7550756 9.80111205,14.6489072 9.80111205,15.9089615 C9.80111205,17.2683305 10.8377085,18.0721582 11.7377473,18.0721582 C12.5229535,18.0721582 13.0071123,17.7121427 13.3547135,17.1690158 L14.3509633,17.8083537 C13.7799042,18.7983964 12.8395189,19.2825552 11.6291219,19.2825552 C9.78869772,19.2825552 8.41381087,17.8269752 8.41381087,15.9182723 C8.41381087,13.9288762 9.86628728,12.5229535 11.6880899,12.5229535 Z M17.0697012,15.6482606 C16.4024311,15.6482606 15.8965472,16.2006982 15.8965472,16.8803827 C15.8965472,17.5600672 16.3900167,18.1218155 17.0697012,18.1218155 C17.7493857,18.1218155 18.2428552,17.5569636 18.2428552,16.8896935 C18.2428552,16.2006982 17.7400749,15.6482606 17.0697012,15.6482606 Z M14.2702702,6.6571696 C15.6265356,6.65407986 16.7003749,7.69377983 16.7003749,9.07177027 C16.7003749,10.4590714 15.6544678,11.4770464 14.2702702,11.4770464 C12.9140048,11.4770464 11.8401655,10.44045 11.8401655,9.06245953 C11.8401655,7.67515834 12.8860726,6.6571696 14.2702702,6.6571696 Z M7.86758044,4.70503032 C9.11522042,4.70503032 10.0742273,5.24815718 10.744601,6.29716791 L9.68938309,6.94581656 C9.28281385,6.34372165 8.6155437,5.9185309 7.907927,5.9185309 C6.7161515,5.9185309 5.83473419,6.83098403 5.83473419,8.09103834 C5.83473419,9.4286822 6.8713306,10.2728565 7.88620193,10.2728565 C8.64037237,10.2728565 9.20212072,9.99043055 9.47523593,9.35109265 L8.37967147,9.35109265 L8.37967147,8.33311774 L11.2194491,8.33311774 L11.2194491,11.3777317 L10.1549204,11.3777317 L10.1549204,10.2511315 C9.68007235,11.0363377 8.88555535,11.464632 7.69377985,11.464632 C5.89370225,11.464632 4.48777958,9.94077324 4.48777958,8.10034909 C4.48777958,6.15129956 5.96818822,4.70503032 7.86758044,4.70503032 Z M14.2671666,7.83033745 C13.5998965,7.83033745 13.0940126,8.38277505 13.0940126,9.06245953 C13.0940126,9.74214399 13.5967929,10.3038923 14.2671666,10.3038923 C14.9468511,10.3007888 15.4403206,9.73904041 15.4403206,9.07177027 C15.4403206,8.38277505 14.9375404,7.83033745 14.2671666,7.83033745 Z" id="Combined-Shape"></path>
                </g>
            </g>
        </g>
    </g>
</svg>