<?xml version="1.0" encoding="UTF-8"?>
<svg width="22px" height="24px" viewBox="0 0 22 24" version="1.1" xmlns="http://www.w3.org/2000/svg" xmlns:xlink="http://www.w3.org/1999/xlink">
    <!-- Generator: Sketch 58 (84663) - https://sketch.com -->
    <title>Combined Shape</title>
    <desc>Created with Sketch.</desc>
    <g id="Page-1" stroke="none" stroke-width="1" fill="none" fill-rule="evenodd">
        <g id="Artboard" fill="#FFFFFF" fill-rule="nonzero">
            <g id="wwu">
                <g id="Group-2">
                    <path d="M13.2988343,1.61177604 C18.2704392,2.66633313 22,7.07158972 22,12.3458823 C22,18.4067201 17.0751322,23.3199999 11,23.3199999 C4.92486772,23.3199999 0,18.4067201 0,12.3458823 C0,10.4727719 0.47038772,8.70926804 1.29974309,7.16652845 L5.02474117,9.31209679 C4.55932541,10.2226409 4.29687498,11.2536844 4.29687498,12.3458823 C4.29687498,16.0392053 7.29796624,19.0332352 11,19.0332352 C14.7020336,19.0332352 17.7031249,16.0392053 17.7031249,12.3458823 C17.7031249,9.1854541 15.5055865,6.53708084 12.5517681,5.83862962 L13.2988343,1.61177604 Z M10.9999999,-8.8817842e-16 C11.4705972,-8.8817842e-16 11.9350592,0.0262063363 12.3919997,0.0772360026 L11.6435417,4.31196484 C11.4312305,4.29527025 11.2166109,4.28676468 10.9999999,4.28676468 C8.29938551,4.28676468 5.90829451,5.60887383 4.44155842,7.63970733 L0.707594609,5.48897482 C2.92738917,2.17924248 6.70859966,-8.8817842e-16 10.9999999,-8.8817842e-16 Z" id="Combined-Shape"></path>
                </g>
            </g>
        </g>
    </g>
</svg>